<svg width="290" height="257" viewBox="0 0 290 257" fill="none" xmlns="http://www.w3.org/2000/svg">
<path d="M187.231 67.979C188.816 62.0425 197.24 62.0425 198.825 67.979L199.687 71.209C210.396 111.322 241.727 142.653 281.841 153.363L285.071 154.225C291.007 155.81 291.007 164.234 285.071 165.819L281.841 166.681C241.727 177.39 210.396 208.722 199.687 248.835L198.825 252.065C197.24 258.001 188.816 258.001 187.231 252.065L186.368 248.835C175.659 208.722 144.328 177.39 104.215 166.681L100.985 165.819C95.0482 164.234 95.0482 155.81 100.985 154.225L104.215 153.363C144.328 142.653 175.659 111.322 186.368 71.209L187.231 67.979Z" fill="#F6F6F6"/>
<path d="M212.822 17.3831C213.049 15.1404 216.317 15.1404 216.544 17.3831C217.305 24.8971 223.247 30.8389 230.761 31.5996C233.003 31.8266 233.003 35.0943 230.761 35.3214C223.247 36.082 217.305 42.0239 216.544 49.5379C216.317 51.7806 213.049 51.7806 212.822 49.5379C212.062 42.0239 206.12 36.082 198.606 35.3214C196.363 35.0943 196.363 31.8266 198.606 31.5996C206.12 30.8389 212.062 24.8971 212.822 17.3831Z" fill="#F6F6F6"/>
<path d="M9.74425 67.3306C9.8834 65.9561 11.8862 65.9561 12.0254 67.3306C12.4916 71.936 16.1333 75.5778 20.7387 76.044C22.1133 76.1831 22.1133 78.1859 20.7387 78.3251C16.1333 78.7913 12.4916 82.433 12.0254 87.0384C11.8862 88.413 9.8834 88.413 9.74425 87.0384C9.27806 82.433 5.63627 78.7913 1.03093 78.3251C-0.343642 78.1859 -0.343642 76.1831 1.03093 76.044C5.63627 75.5778 9.27806 71.936 9.74425 67.3306Z" fill="#F6F6F6"/>
<path d="M187.714 68.1079C189.167 62.6662 196.889 62.6662 198.342 68.1079L199.204 71.338C201.745 80.8562 205.442 89.882 210.139 98.2588C200.505 94.1285 191.457 88.9319 183.143 82.8149C184.567 79.0797 185.807 75.2504 186.851 71.338L187.714 68.1079ZM182.769 83.7813C191.432 90.1284 200.882 95.485 210.954 99.6896C215.388 107.342 220.664 114.435 226.657 120.846C191.252 130.813 161.82 154.386 144.313 185.644C132.546 176.793 119.031 170.119 104.344 166.198L101.114 165.336C95.6719 163.883 95.6719 156.161 101.114 154.708L104.344 153.846C140.379 144.225 169.358 118.034 182.769 83.7813ZM227.746 120.545C221.953 114.404 216.827 107.624 212.482 100.316C217.699 102.421 223.079 104.218 228.599 105.685L232.398 106.695C238.886 108.419 238.886 117.581 232.398 119.305L228.599 120.315C228.315 120.391 228.03 120.467 227.746 120.545ZM145.117 186.254C162.57 155.017 192.014 131.492 227.433 121.668C241.978 136.926 260.638 148.22 281.712 153.846L284.942 154.708C290.384 156.161 290.384 163.883 284.942 165.336L281.712 166.198C241.426 176.954 209.959 208.42 199.204 248.706L198.342 251.936C196.889 257.378 189.167 257.378 187.714 251.936L186.851 248.706C180.107 223.443 165.218 201.648 145.117 186.254ZM104.086 167.164C118.693 171.064 132.131 177.71 143.823 186.527C138.608 196.002 134.484 206.172 131.614 216.874L130.599 220.657C128.868 227.114 119.66 227.114 117.928 220.657L116.914 216.874C104.271 169.726 67.2828 132.902 19.9285 120.315L16.1293 119.305C9.64208 117.581 9.64207 108.419 16.1293 106.695L19.9285 105.685C67.2828 93.0982 104.271 56.2739 116.914 9.1259L117.928 5.34341C119.66 -1.11446 128.868 -1.11447 130.599 5.34339L131.614 9.12587C139.683 39.2167 157.668 65.1024 181.936 83.1659C168.683 117.247 139.9 143.318 104.086 152.88L100.856 153.742C94.4245 155.459 94.4246 164.585 100.856 166.302L104.086 167.164ZM213.32 17.4334C213.486 15.7902 215.88 15.7902 216.047 17.4334C216.831 25.1837 222.96 31.3125 230.71 32.097C232.353 32.2634 232.353 34.6576 230.71 34.8239C222.96 35.6085 216.831 41.7372 216.047 49.4875C215.88 51.1307 213.486 51.1307 213.32 49.4875C212.535 41.7372 206.407 35.6085 198.656 34.8239C197.013 34.6576 197.013 32.2634 198.656 32.097C206.407 31.3125 212.535 25.1837 213.32 17.4334ZM10.2417 67.381C10.3202 66.6059 11.4494 66.6059 11.5279 67.381C12.018 72.2226 15.8467 76.0513 20.6883 76.5414C21.4634 76.6199 21.4634 77.7491 20.6883 77.8276C15.8467 78.3177 12.018 82.1464 11.5279 86.988C11.4494 87.7631 10.3202 87.7631 10.2417 86.988C9.75159 82.1464 5.92294 78.3177 1.08128 77.8276C0.306239 77.7491 0.306239 76.6199 1.08128 76.5414C5.92294 76.0513 9.75159 72.2226 10.2417 67.381Z" stroke="black"/>
</svg>
