<svg width="84" height="84" viewBox="0 0 84 84" fill="none" xmlns="http://www.w3.org/2000/svg">
<path d="M46.3908 53.9699L53.5232 46.8375L60.6556 53.9699L53.5232 61.1023L46.3908 53.9699Z" fill="#242424"/>
<path d="M1 50.9268L50.9268 1L100.854 50.9268L50.9268 100.854L1 50.9268Z" stroke="black"/>
<path d="M8.56514 51.4345L51.3595 8.64016L94.1539 51.4345L51.3595 94.2289L8.56514 51.4345Z" stroke="black"/>
<path d="M16.1303 51.9414L51.7922 16.2795L87.4542 51.9414L51.7922 87.6034L16.1303 51.9414Z" stroke="black"/>
<path d="M23.6945 52.4492L52.2241 23.9196L80.7537 52.4492L52.2241 80.9788L23.6945 52.4492Z" stroke="black"/>
<path d="M31.2597 52.9543L52.6568 31.5572L74.054 52.9543L52.6568 74.3515L31.2597 52.9543Z" stroke="black"/>
<path d="M38.8257 53.4621L53.0905 39.1973L67.3552 53.4621L53.0905 67.7269L38.8257 53.4621Z" stroke="black"/>
<path d="M46.3908 53.9699L53.5232 46.8375L60.6556 53.9699L53.5232 61.1023L46.3908 53.9699Z" stroke="black"/>
</svg>
