<svg width="314" height="314" viewBox="0 0 314 314" fill="none" xmlns="http://www.w3.org/2000/svg">
<path fill-rule="evenodd" clip-rule="evenodd" d="M98.2792 55.2922C81.9916 46.5095 63.3536 41.5251 43.5515 41.5251C42.4326 41.5251 41.5256 42.4321 41.5256 43.551C41.5256 63.3533 46.5101 81.9914 55.2929 98.2792C36.7959 98.8169 18.1626 103.819 1.01327 113.72C0.0443143 114.28 -0.287675 115.519 0.271753 116.488C10.1729 133.637 23.8085 147.286 39.5584 157C23.8086 166.714 10.1729 180.363 0.27182 197.512C-0.287608 198.481 0.0443825 199.72 1.01334 200.28C18.1625 210.181 36.7957 215.183 55.2925 215.721C46.51 232.008 41.5256 250.646 41.5256 270.448C41.5256 271.567 42.4326 272.474 43.5515 272.474C63.3536 272.474 81.9916 267.49 98.2792 258.707C98.8169 277.204 103.819 295.837 113.72 312.987C114.28 313.956 115.519 314.288 116.488 313.728C133.637 303.827 147.286 290.191 157 274.442C166.714 290.191 180.363 303.827 197.512 313.728C198.481 314.288 199.72 313.956 200.28 312.987C210.181 295.837 215.183 277.204 215.721 258.707C232.009 267.49 250.647 272.474 270.449 272.474C271.568 272.474 272.475 271.567 272.475 270.448C272.475 250.646 267.49 232.008 258.708 215.721C277.204 215.183 295.838 210.181 312.987 200.28C313.956 199.72 314.288 198.481 313.728 197.512C303.827 180.363 290.191 166.714 274.442 157C290.191 147.286 303.827 133.637 313.728 116.488C314.288 115.519 313.956 114.28 312.987 113.72C295.838 103.819 277.204 98.817 258.707 98.2792C267.49 81.9914 272.475 63.3533 272.475 43.551C272.475 42.4321 271.568 41.5251 270.449 41.5251C250.647 41.5251 232.008 46.5096 215.721 55.2923C215.183 36.7955 210.181 18.1624 200.28 1.01327C199.72 0.0443151 198.481 -0.287675 197.512 0.271753C180.363 10.1728 166.714 23.8085 157 39.5583C147.286 23.8085 133.637 10.1728 116.488 0.271753C115.519 -0.287675 114.28 0.0443151 113.72 1.01327C103.819 18.1624 98.8171 36.7955 98.2792 55.2922ZM146.176 138.252C137.698 128.41 127.773 120.261 116.911 113.943C107.946 98.1832 102.943 80.4307 102.344 62.3326C117.718 71.9005 130.59 85.1091 139.756 100.753C139.796 113.319 141.891 125.989 146.176 138.252ZM139.965 93.4256C130.304 78.8024 117.404 66.5062 102.288 57.5585C102.463 39.6465 106.967 21.5386 116.223 4.81871C132.599 14.6705 145.554 28.1007 154.661 43.5255C146.044 58.8323 141.021 75.9307 139.965 93.4256ZM144.144 109.022C145.18 122.292 148.617 135.547 154.628 148.146C153.534 134.229 149.883 121.031 144.144 109.022ZM109.024 144.145C122.292 145.18 135.546 148.617 148.145 154.627C134.229 153.533 121.032 149.882 109.024 144.145ZM100.754 139.756C113.32 139.797 125.989 141.891 138.252 146.176C128.41 137.698 120.261 127.773 113.943 116.911C98.1835 107.946 80.4312 102.943 62.3333 102.344C71.9015 117.718 85.1103 130.59 100.754 139.756ZM57.5592 102.288C66.507 117.404 78.8033 130.304 93.4267 139.965C75.9315 141.021 58.8327 146.044 43.5256 154.661C28.1008 145.554 14.6705 132.599 4.8187 116.223C21.5388 106.967 39.647 102.463 57.5592 102.288ZM59.898 98.2373C77.4625 98.4284 94.7818 102.628 110.461 110.461C102.627 94.7816 98.4284 77.462 98.2374 59.8973C82.6375 51.0929 64.7038 45.939 45.5957 45.5952C45.9395 64.7035 51.0934 82.6374 59.898 98.2373ZM211.712 57.5586C211.537 39.6466 207.033 21.5386 197.777 4.81871C181.401 14.6705 168.446 28.1007 159.339 43.5255C167.956 58.8324 172.979 75.931 174.035 93.426C183.696 78.8026 196.596 66.5064 211.712 57.5586ZM174.244 100.753C183.41 85.1095 196.282 71.9008 211.656 62.3327C211.057 80.4308 206.054 98.1833 197.089 113.943C186.227 120.261 176.302 128.41 167.824 138.252C172.109 125.989 174.204 113.32 174.244 100.753ZM159.373 148.145C165.383 135.546 168.82 122.292 169.856 109.023C164.118 121.032 160.467 134.229 159.373 148.145ZM170.19 99.6671C163.942 110.57 159.421 122.589 157 135.352C154.58 122.589 150.059 110.569 143.81 99.6666C143.926 81.5359 148.47 63.6607 157 47.6879C165.53 63.6608 170.074 81.5362 170.19 99.6671ZM215.763 59.8974C231.363 51.0929 249.296 45.939 268.405 45.5952C268.061 64.7035 262.907 82.6374 254.102 98.2373C236.538 98.4284 219.218 102.627 203.539 110.461C211.373 94.7816 215.572 77.4621 215.763 59.8974ZM251.667 102.344C233.569 102.943 215.817 107.946 200.057 116.911C193.739 127.773 185.59 137.698 175.748 146.176C188.011 141.891 200.68 139.797 213.246 139.756C228.89 130.59 242.099 117.718 251.667 102.344ZM165.855 154.627C179.771 153.533 192.968 149.882 204.977 144.145C191.708 145.18 178.454 148.617 165.855 154.627ZM214.332 143.81C232.463 143.926 250.339 148.47 266.312 157C250.339 165.53 232.464 170.074 214.333 170.19C203.431 163.941 191.411 159.42 178.648 157C191.411 154.579 203.43 150.058 214.332 143.81ZM165.854 159.372C178.453 165.383 191.708 168.82 204.978 169.856C192.969 164.117 179.771 160.466 165.854 159.372ZM213.247 174.244C228.891 183.41 242.099 196.282 251.667 211.656C233.569 211.057 215.817 206.054 200.057 197.089C193.739 186.227 185.59 176.302 175.748 167.824C188.011 172.109 200.681 174.204 213.247 174.244ZM256.441 211.712C247.494 196.596 235.198 183.696 220.574 174.035C238.069 172.979 255.168 167.956 270.474 159.339C285.899 168.446 299.329 181.401 309.181 197.777C292.461 207.033 274.353 211.537 256.441 211.712ZM254.103 215.763C236.538 215.572 219.218 211.373 203.539 203.539C211.373 219.218 215.572 236.537 215.763 254.102C231.363 262.906 249.296 268.06 268.405 268.404C268.061 249.296 262.907 231.362 254.103 215.763ZM211.656 251.667C211.057 233.569 206.054 215.817 197.089 200.057C186.227 193.739 176.302 185.59 167.824 175.748C172.109 188.011 174.203 200.68 174.244 213.246C183.41 228.89 196.282 242.099 211.656 251.667ZM159.373 165.855C160.467 179.771 164.118 192.968 169.855 204.977C168.82 191.708 165.383 178.453 159.373 165.855ZM170.19 214.332C170.074 232.463 165.53 250.339 157 266.312C148.47 250.339 143.926 232.464 143.81 214.333C150.059 203.43 154.58 191.41 157 178.648C159.421 191.41 163.942 203.43 170.19 214.332ZM144.145 204.977C145.18 191.708 148.617 178.453 154.628 165.854C153.533 179.771 149.883 192.968 144.145 204.977ZM139.756 213.246C130.59 228.89 117.718 242.099 102.344 251.667C102.943 233.569 107.946 215.817 116.911 200.057C127.773 193.739 137.698 185.59 146.176 175.748C141.891 188.011 139.797 200.68 139.756 213.246ZM102.288 256.441C117.404 247.493 130.304 235.197 139.965 220.574C141.021 238.069 146.044 255.167 154.661 270.474C145.554 285.899 132.599 299.329 116.223 309.181C106.967 292.461 102.463 274.353 102.288 256.441ZM98.2373 254.102C98.4284 236.538 102.627 219.218 110.461 203.539C94.7816 211.373 77.4622 215.572 59.8976 215.763C51.0933 231.362 45.9395 249.296 45.5957 268.404C64.7038 268.06 82.6375 262.906 98.2373 254.102ZM62.3329 211.656C80.4309 211.057 98.1833 206.054 113.943 197.089C120.261 186.227 128.41 176.302 138.252 167.824C125.989 172.109 113.319 174.204 100.753 174.244C85.1094 183.41 71.9008 196.282 62.3329 211.656ZM99.6668 170.19C81.536 170.074 63.6608 165.53 47.6879 157C63.6611 148.47 81.5367 143.926 99.6679 143.81C110.57 150.058 122.59 154.579 135.352 157C122.589 159.42 110.57 163.941 99.6668 170.19ZM109.022 169.856C121.032 164.117 134.23 160.466 148.146 159.372C135.547 165.383 122.292 168.82 109.022 169.856ZM93.4258 174.035C78.8026 183.696 66.5065 196.596 57.5588 211.712C39.6467 211.537 21.5387 207.033 4.81877 197.777C14.6706 181.401 28.1008 168.446 43.5256 159.339C58.8324 167.956 75.9309 172.979 93.4258 174.035ZM174.035 220.573C183.696 235.197 196.596 247.493 211.712 256.441C211.537 274.353 207.033 292.461 197.777 309.181C181.401 299.329 168.446 285.899 159.339 270.474C167.956 255.167 172.979 238.069 174.035 220.573ZM220.574 139.965C235.197 130.304 247.493 117.404 256.441 102.288C274.353 102.463 292.461 106.967 309.181 116.223C299.33 132.599 285.899 145.554 270.474 154.661C255.167 146.044 238.069 141.021 220.574 139.965ZM192.122 121.878C181.148 129.409 171.388 139.013 163.482 150.518C174.987 142.612 184.591 132.852 192.122 121.878ZM192.122 192.122C184.591 181.148 174.987 171.387 163.482 163.482C171.388 174.987 181.148 184.591 192.122 192.122ZM150.518 163.482C142.612 174.987 132.852 184.591 121.878 192.122C129.409 181.148 139.013 171.388 150.518 163.482ZM150.518 150.518C139.013 142.612 129.409 132.852 121.878 121.878C132.852 129.409 142.612 139.013 150.518 150.518Z" fill="url(#paint0_radial_348_4524)"/>
<defs>
<radialGradient id="paint0_radial_348_4524" cx="0" cy="0" r="1" gradientUnits="userSpaceOnUse" gradientTransform="translate(157 156.999) rotate(90) scale(127.63 127.63)">
<stop stop-color="#F6F6F6"/>
<stop offset="1" stop-color="#F6F6F6" stop-opacity="0.2"/>
</radialGradient>
</defs>
</svg>
