<svg width="48" height="48" viewBox="0 0 48 48" fill="none" xmlns="http://www.w3.org/2000/svg">
<path fill-rule="evenodd" clip-rule="evenodd" d="M7.42142 23.3329C8.12043 20.8261 9.17883 19.0516 10.5055 17.76C13.0053 15.3264 16.5349 14.5234 20.7441 13.897C21.4349 13.7942 22.142 13.6964 22.8631 13.5967C30.3996 12.5545 39.4584 11.3017 47.3111 1.91865C47.644 1.64125 47.9753 1.35076 48.3045 1.04656C48.9006 1.69966 48.9244 2.8246 48.0616 3.44292L10.4065 30.4291C9.33355 31.198 8.09043 31.3449 6.99099 31.031C7.0078 28.1034 7.15681 25.5539 7.42142 23.3329ZM44.091 4.18586C40.9191 6.0447 37.649 6.94917 34.4344 7.39634C31.9781 7.73802 29.5522 7.81309 27.242 7.84595C26.8006 7.85222 26.3644 7.85698 25.9332 7.86168C24.0915 7.88174 22.3425 7.9008 20.6815 8.0334C16.6028 8.35901 13.2827 9.3552 10.9215 12.5574C9.68994 14.2277 8.68924 16.5364 8.00558 19.7414C8.56277 18.7437 9.21252 17.9013 9.94694 17.1863C12.6516 14.5532 16.4283 13.7297 20.6263 13.105C21.3204 13.0017 22.0281 12.9036 22.7473 12.8039C29.4291 11.8775 37.1012 10.8138 44.091 4.18586ZM4.07097 27.175C4.07097 28.4083 4.59879 29.446 5.39851 30.1567C5.53692 20.8585 7.04006 15.1231 9.63265 11.607C12.4019 7.85134 16.2963 6.77701 20.554 6.4371C22.2755 6.29967 24.0936 6.28 25.9392 6.26003H25.9392C26.3647 6.25543 26.7917 6.25081 27.2192 6.24473C29.5179 6.21203 31.861 6.1375 34.2137 5.81023C38.3684 5.23229 42.5457 3.86752 46.4623 0.539913L20.0847 0.53994C11.2406 0.539951 4.07097 7.70956 4.07097 16.5537L4.07097 27.175Z" fill="#F6F6F6"/>
<path fill-rule="evenodd" clip-rule="evenodd" d="M40.5786 25.2064C39.8796 27.7135 38.8212 29.4881 37.4944 30.7798C34.9947 33.2135 31.465 34.0165 27.2558 34.6428C26.565 34.7456 25.8579 34.8434 25.1368 34.9431C17.6002 35.9854 8.54142 37.2381 0.688667 46.6214C0.355759 46.8988 0.0246201 47.1892 -0.304581 47.4933C-0.900574 46.8402 -0.924389 45.7153 -0.0616414 45.097L37.5935 18.1108C38.6664 17.3419 39.9096 17.195 41.009 17.5089C40.9922 20.4363 40.8432 22.9855 40.5786 25.2064ZM3.90878 44.3541C7.08072 42.4952 10.3509 41.5907 13.5656 41.1435C16.0219 40.8018 18.4478 40.7267 20.758 40.6939C21.1992 40.6876 21.6353 40.6829 22.0664 40.6782L22.0668 40.6782C23.9085 40.6581 25.6575 40.639 27.3185 40.5064C31.3972 40.1808 34.7173 39.1846 37.0785 35.9824C38.3101 34.3121 39.3108 32.0033 39.9945 28.7982C39.4373 29.796 38.7875 30.6384 38.053 31.3535C35.3483 33.9867 31.5716 34.8101 27.3736 35.4348C26.6795 35.5381 25.9718 35.6362 25.2527 35.7359L25.2526 35.7359C18.5707 36.6623 10.8986 37.726 3.90878 44.3541ZM43.929 21.3649C43.929 20.1317 43.4012 19.094 42.6015 18.3833C42.4631 27.6814 40.9599 33.4167 38.3674 36.9328C35.5981 40.6885 31.7037 41.7628 27.4459 42.1027C25.7245 42.2402 23.9064 42.2598 22.0608 42.2798C21.6353 42.2844 21.2083 42.289 20.7808 42.2951C18.4821 42.3278 16.139 42.4023 13.7863 42.7296C9.63154 43.3075 5.45419 44.6723 1.53755 48L27.9153 48C36.7594 48 43.929 40.8304 43.929 31.9862L43.929 21.3649Z" fill="#F6F6F6"/>
</svg>
