<svg width="78" height="90" viewBox="0 0 78 90" fill="none" xmlns="http://www.w3.org/2000/svg">
<path d="M0.496743 23.1549L0.496872 23.1549L38.8125 1.03453L77.475 23.3546V66.6445L77.1283 66.8442L77.1281 66.8443L38.8125 88.9646L0.15 66.6446V23.3547L0.496743 23.1549ZM1.5375 65.7558V65.8424L1.6125 65.8857L38.7375 87.3204L38.8125 87.3636L38.8875 87.3204L76.0125 65.8857L76.0875 65.8424V65.7558V24.2433V24.1567L76.0125 24.1134L38.8875 2.6788L38.8125 2.6355L38.7375 2.6788L1.6125 24.1134L1.5375 24.1567V24.2433V65.7558Z" fill="#242424" stroke="#242424" stroke-width="0.3"/>
<path d="M38.5926 44.9978L39.2855 43.7977L76.9954 65.5695L76.3025 66.7697L38.5926 44.9978Z" fill="#242424" stroke="#242424" stroke-width="0.3"/>
<path d="M0.625822 65.5734L38.7907 43.5202L39.4841 44.7201L1.31917 66.7733L0.625822 65.5734Z" fill="#242424" stroke="#242424" stroke-width="0.3"/>
<path d="M37.9625 42.9638V2.15H39.6625V42.9638H37.9625ZM37.9625 43.2639H39.6625V44.1331H37.9625V43.2639ZM37.9625 44.4331H39.6625V44.85H37.9625V44.4331Z" fill="#242424" stroke="#242424" stroke-width="0.3"/>
<path d="M21.5766 27.5229V39.3698L10.6969 44.7583V32.9115L21.5766 27.5229Z" stroke="#242424" stroke-width="0.3"/>
<path d="M20.5219 38.8052L11.7516 43.0727V33.476L20.5219 29.2086V38.8052Z" stroke="#242424" stroke-width="0.3"/>
<path opacity="0.15" d="M11.9905 33.2882L20.5219 29.2068V36.3493L11.9905 33.2882Z" fill="black" stroke="#242424" stroke-width="0.3"/>
<path d="M11.7516 37.5889V36.8253L20.5219 32.5829V33.3466L11.7516 37.5889Z" stroke="#242424" stroke-width="0.3"/>
<path opacity="0.15" d="M20.5219 29.2079V29.9716L11.7516 34.2139V33.4503L20.5219 29.2079Z" fill="black" stroke="#242424" stroke-width="0.3"/>
<path d="M14.0719 42.0151V31.2763L14.8793 30.8726V41.6114L14.0719 42.0151ZM17.3941 40.354V29.6152L18.2016 29.2115V39.9503L17.3941 40.354Z" stroke="#242424" stroke-width="0.3"/>
<path d="M20.6752 39.0436L20.7586 39.0023V38.9092V27.9281L21.5766 27.5229V39.3698L10.6969 44.7583V43.9857L20.6752 39.0436Z" fill="#242424" stroke="#242424" stroke-width="0.3"/>
<path d="M39.8629 47.4159V33.582L40.4629 33.9869V47.0067L39.8629 47.4159Z" stroke="black" stroke-width="0.3"/>
<path d="M38.9625 32.6621L49.4625 38.813V50.1375L38.9625 43.9328V32.6621Z" fill="#242424" stroke="black" stroke-width="0.3"/>
<path d="M38.6121 37.9731L49.4621 44.2517V50.2891L30.9121 61.0265L20.0621 54.7481V48.7122L38.6121 37.9731Z" fill="#F6F6F6" stroke="black" stroke-width="0.3"/>
<path d="M41.6627 45.6343V44.5581L44.9627 42.5658V43.642L41.6627 45.6343Z" stroke="black" stroke-width="0.3"/>
<path d="M39.6128 39.7712L44.9623 42.747V43.8527L41.6076 45.7212L36.2623 42.7425V41.6332L39.6128 39.7712Z" fill="#242424" stroke="black" stroke-width="0.3"/>
<path d="M44.8207 42.8998L41.6117 44.8247L36.4039 41.6994L39.6129 39.7745L44.8207 42.8998Z" stroke="black" stroke-width="0.3"/>
<path d="M41.6627 45.6343V44.5581L44.9627 42.5658V43.642L41.6627 45.6343Z" stroke="black" stroke-width="0.3"/>
<path d="M49.5693 53.818V50.8065V50.5468L49.3443 50.6766L31.8586 60.762L31.7835 60.8052V60.8919V64.0833L30.8406 64.6273L29.8978 64.0843V60.893V60.8064L29.8228 60.7631L22.1728 56.3487L21.9478 56.2188V56.4786V58.4111L21.005 58.9541L20.0621 58.4111V49.3224L21.9922 50.437L22.0658 50.4795L22.0664 50.4792L30.7646 55.4962L30.8396 55.5394L30.9145 55.4962L49.4931 44.7814L49.5682 44.7381V44.6515V39.2799V39.1929L49.4926 39.1497L40.7498 34.1507L38.7907 33.0303L39.5825 32.5735L40.6016 33.1598L40.6016 33.1598L50.3621 38.7701V53.3598L49.5693 53.818Z" fill="#242424" stroke="black" stroke-width="0.3"/>
<path d="M50.205 38.6813L49.421 39.1086L40.7509 34.1508L38.7918 33.0303L39.5835 32.5736L40.6014 33.1608L40.6016 33.161L50.205 38.6813ZM20.855 58.8704L20.0621 58.413V49.3245L30.6907 55.4533V64.5414L29.8978 64.0863V60.8949V60.8083L29.8228 60.765L21.0799 55.7198L20.855 55.5899V55.8497V58.8704ZM48.4764 53.3623V51.5238L49.2693 51.0664V53.8197L48.4764 53.3623Z" stroke="black" stroke-width="0.3"/>
</svg>
