<svg width="83" height="83" viewBox="0 0 83 83" fill="none" xmlns="http://www.w3.org/2000/svg">
<path d="M32.992 46.2438C36.4116 48.8083 40.7575 50.6616 45.6103 51.5C40.7575 52.3386 36.4115 54.192 32.992 56.7568C29.3793 59.4664 26.7868 62.9835 25.75 66.9407C24.7132 62.9836 22.1207 59.4666 18.508 56.757C15.0884 54.1924 10.7425 52.339 5.88967 51.5005C10.7425 50.662 15.0884 48.8087 18.508 46.244C22.1207 43.5345 24.7132 40.0175 25.75 36.0604C26.7868 40.0175 29.3793 43.5343 32.992 46.2438ZM46.2435 84.492C43.534 80.8793 40.017 78.2868 36.0599 77.25C40.017 76.2132 43.534 73.6207 46.2435 70.008C48.8082 66.5884 50.6615 62.2425 51.5 57.3897C52.3385 62.2425 54.1918 66.5884 56.7565 70.008C59.466 73.6207 62.983 76.2132 66.9401 77.25C62.983 78.2868 59.466 80.8793 56.7565 84.492C54.1918 87.9116 52.3385 92.2575 51.5 97.1103C50.6615 92.2575 48.8082 87.9116 46.2435 84.492ZM84.492 56.757C80.8793 59.4666 78.2868 62.9836 77.25 66.9407C76.2132 62.9835 73.6207 59.4664 70.008 56.7568C66.5884 54.192 62.2425 52.3386 57.3897 51.5C62.2425 50.6616 66.5884 48.8083 70.008 46.2438C73.6207 43.5343 76.2132 40.0175 77.25 36.0604C78.2868 40.0175 80.8793 43.5345 84.492 46.244C87.9116 48.8087 92.2575 50.662 97.1103 51.5005C92.2575 52.339 87.9116 54.1924 84.492 56.757ZM56.7565 18.508C59.466 22.1207 62.983 24.7132 66.9401 25.75C62.983 26.7868 59.466 29.3793 56.7565 32.992C54.1918 36.4116 52.3385 40.7575 51.5 45.6103C50.6615 40.7575 48.8082 36.4116 46.2435 32.992C43.534 29.3793 40.017 26.7868 36.0599 25.75C40.017 24.7132 43.534 22.1207 46.2435 18.508C48.8082 15.0884 50.6615 10.7425 51.5 5.88967C52.3385 10.7425 54.1918 15.0884 56.7565 18.508Z" stroke="black"/>
</svg>
