<svg width="310" height="307" viewBox="0 0 310 307" fill="none" xmlns="http://www.w3.org/2000/svg">
<path d="M154.907 0L185.947 50.7869L239.517 24.8438L238.173 84.3501L297.264 91.4875L263.962 140.82L309.814 178.772L255.127 202.269L273.182 258.986L214.473 249.186L198.998 306.661L154.907 266.676L110.816 306.661L95.3414 249.186L36.6322 258.986L54.6874 202.269L0 178.772L45.8525 140.82L12.5497 91.4875L71.6416 84.3501L70.2968 24.8438L123.867 50.7869L154.907 0Z" fill="#F8EED5"/>
<path d="M154.907 54.9865L175.041 87.9294L209.789 71.1014L208.917 109.7L247.247 114.33L225.645 146.329L255.387 170.947L219.914 186.188L231.626 222.977L193.544 216.621L183.507 253.902L154.907 227.966L126.307 253.902L116.27 216.621L78.1883 222.977L89.8997 186.188L54.4268 170.947L84.169 146.329L62.5671 114.33L100.897 109.7L100.025 71.1014L134.773 87.9294L154.907 54.9865Z" fill="#EDD5BF"/>
<path d="M154.907 102.218L165.673 119.834L184.254 110.835L183.787 131.475L204.283 133.951L192.732 151.061L208.636 164.225L189.668 172.375L195.93 192.047L175.567 188.648L170.2 208.583L154.907 194.714L139.614 208.583L134.247 188.648L113.884 192.047L120.146 172.375L101.178 164.225L117.082 151.061L105.531 133.951L126.027 131.475L125.56 110.835L144.141 119.834L154.907 102.218Z" fill="#DC7E7E"/>
<path d="M186.165 51.2369L238.999 25.6504L237.673 84.3388L237.662 84.7921L238.113 84.8465L296.392 91.8858L263.547 140.541L263.293 140.916L263.643 141.205L308.865 178.636L254.929 201.809L254.513 201.988L254.65 202.42L272.457 258.358L214.555 248.693L214.108 248.618L213.99 249.056L198.728 305.741L155.243 266.306L154.907 266.001L154.571 266.306L111.086 305.741L95.8242 249.056L95.7063 248.618L95.2591 248.693L37.3568 258.358L55.1639 202.42L55.3014 201.988L54.8848 201.809L0.949026 178.636L46.1713 141.205L46.5206 140.916L46.2669 140.541L13.4218 91.8858L71.7016 84.8465L72.1517 84.7921L72.1415 84.3388L70.8151 25.6504L123.649 51.2369L124.057 51.4345L124.294 51.0476L154.907 0.95877L185.521 51.0476L185.757 51.4345L186.165 51.2369ZM155.334 54.7258L154.907 54.0277L154.48 54.7258L134.583 87.2817L100.243 70.6514L99.5064 70.2949L99.5248 71.1127L100.387 109.258L62.5072 113.833L61.695 113.932L62.1527 114.61L83.5009 146.233L54.108 170.562L53.4778 171.083L54.2294 171.406L89.2858 186.468L77.7118 222.826L77.4637 223.605L78.2706 223.47L115.905 217.188L125.825 254.032L126.037 254.821L126.643 254.272L154.907 228.641L183.171 254.272L183.777 254.821L183.99 254.032L193.909 217.188L231.544 223.47L232.35 223.605L232.102 222.826L220.528 186.468L255.585 171.406L256.336 171.083L255.706 170.562L226.313 146.233L247.661 114.61L248.119 113.932L247.307 113.833L209.427 109.258L210.289 71.1127L210.308 70.2949L209.571 70.6514L175.231 87.2817L155.334 54.7258ZM174.615 88.1901L174.851 88.577L175.259 88.3794L209.271 71.908L208.417 109.689L208.407 110.142L208.857 110.196L246.375 114.728L225.231 146.05L224.977 146.425L225.326 146.715L254.438 170.81L219.717 185.728L219.3 185.907L219.438 186.34L230.901 222.349L193.627 216.127L193.179 216.053L193.061 216.491L183.237 252.982L155.243 227.595L154.907 227.291L154.571 227.595L126.578 252.982L116.753 216.491L116.635 216.053L116.188 216.127L78.9129 222.349L90.3762 186.34L90.5137 185.907L90.0971 185.728L55.3758 170.81L84.4878 146.715L84.8371 146.425L84.5834 146.05L63.4393 114.728L100.957 110.196L101.407 110.142L101.397 109.689L100.543 71.908L134.555 88.3794L134.963 88.577L135.2 88.1901L154.907 55.9453L174.615 88.1901ZM155.334 101.958L154.907 101.26L154.48 101.958L143.951 119.186L125.778 110.385L125.042 110.029L125.06 110.847L125.517 131.033L105.471 133.454L104.659 133.552L105.116 134.23L116.414 150.965L100.859 163.84L100.229 164.361L100.981 164.684L119.532 172.655L113.407 191.895L113.159 192.675L113.966 192.54L133.882 189.216L139.131 208.713L139.344 209.503L139.95 208.953L154.907 195.389L169.864 208.953L170.47 209.503L170.683 208.713L175.932 189.216L195.848 192.54L196.655 192.675L196.407 191.895L190.282 172.655L208.833 164.684L209.585 164.361L208.955 163.84L193.4 150.965L204.698 134.23L205.155 133.552L204.343 133.454L184.298 131.033L184.754 110.847L184.772 110.029L184.036 110.385L165.863 119.186L155.334 101.958ZM165.247 120.094L165.483 120.481L165.891 120.284L183.736 111.642L183.288 131.464L183.277 131.917L183.727 131.971L203.411 134.349L192.318 150.782L192.064 151.158L192.413 151.447L207.687 164.089L189.471 171.915L189.054 172.094L189.191 172.526L195.206 191.419L175.65 188.155L175.202 188.08L175.084 188.518L169.93 207.663L155.243 194.344L154.907 194.039L154.571 194.344L139.884 207.663L134.73 188.518L134.612 188.08L134.165 188.155L114.608 191.419L120.623 172.526L120.76 172.094L120.344 171.915L102.127 164.089L117.401 151.447L117.75 151.158L117.496 150.782L106.403 134.349L126.087 131.971L126.537 131.917L126.527 131.464L126.079 111.642L143.923 120.284L144.331 120.481L144.567 120.094L154.907 103.177L165.247 120.094Z" stroke="#111111"/>
</svg>
