<svg width="318" height="297" viewBox="0 0 318 297" fill="none" xmlns="http://www.w3.org/2000/svg">
<path d="M255.264 200.5C255.264 253.519 212.283 296.5 159.264 296.5C106.245 296.5 63.2639 253.519 63.2639 200.5C63.2639 196.156 63.5525 191.878 64.1116 187.687C74.4553 191.448 85.62 193.5 97.2639 193.5C120.841 193.5 142.454 185.088 159.264 171.102C176.074 185.088 197.687 193.5 221.264 193.5C232.908 193.5 244.073 191.448 254.416 187.687C254.975 191.878 255.264 196.156 255.264 200.5ZM97.2639 192.5C85.6646 192.5 74.5457 190.443 64.2522 186.673C69.2961 151.706 93.1859 122.834 125.293 110.684C128.787 134.525 140.953 155.549 158.486 170.448C141.869 184.221 120.533 192.5 97.2639 192.5ZM125.15 109.669C92.6673 121.874 68.4672 151.005 63.2935 186.316C27.0402 172.598 1.26392 137.559 1.26392 96.5C1.26392 43.4807 44.2446 0.5 97.2639 0.5C120.533 0.5 141.869 8.77889 158.486 22.5518C137.548 40.3443 124.264 66.8708 124.264 96.5C124.264 100.966 124.566 105.362 125.15 109.669ZM159.264 169.797C141.79 155.001 129.677 134.068 126.252 110.327C136.546 106.557 147.665 104.5 159.264 104.5C170.863 104.5 181.982 106.557 192.276 110.327C188.851 134.068 176.738 155.001 159.264 169.797ZM192.416 109.313C182.073 105.552 170.908 103.5 159.264 103.5C147.62 103.5 136.455 105.552 126.112 109.313C125.553 105.122 125.264 100.844 125.264 96.5C125.264 67.1147 138.467 40.813 159.264 23.2034C180.061 40.813 193.264 67.1147 193.264 96.5C193.264 100.844 192.975 105.122 192.416 109.313ZM255.234 186.316C250.061 151.005 225.861 121.874 193.378 109.669C193.962 105.362 194.264 100.966 194.264 96.5C194.264 66.8708 180.979 40.3443 160.042 22.5518C176.659 8.77889 197.995 0.5 221.264 0.5C274.283 0.5 317.264 43.4807 317.264 96.5C317.264 137.559 291.488 172.598 255.234 186.316ZM193.234 110.684C225.342 122.834 249.232 151.706 254.276 186.673C243.982 190.443 232.863 192.5 221.264 192.5C197.995 192.5 176.659 184.221 160.042 170.448C177.575 155.549 189.741 134.525 193.234 110.684Z" stroke="black"/>
</svg>
