<svg width="74" height="89" viewBox="0 0 74 89" fill="none" xmlns="http://www.w3.org/2000/svg">
<path d="M38.9785 85.5125L34.6875 87.6697L2.64647 71.5625L6.9375 69.4054L38.9785 85.5125Z" stroke="black" stroke-width="0.3"/>
<path d="M0.15 70.3079V28.5956L18.5515 0.844163L20.7451 1.94691L39.1625 11.2054V52.8704L2.3125 71.395L0.15 70.3079Z" stroke="black" stroke-width="0.3"/>
<path opacity="0.06" d="M2.1625 71.3193L0.15 70.3076V28.7933L2.1625 29.805V71.3193Z" fill="black" stroke="black" stroke-width="0.3"/>
<path opacity="0.39" d="M39.1625 11.205V52.87L2.4625 71.3192V29.7577L20.864 2.00627L39.1625 11.205Z" fill="black" stroke="black" stroke-width="0.3"/>
<path d="M39.1625 46.0804V85.2696L7.0875 69.1454V29.9562L39.1625 46.0804Z" fill="#F6F6F6" stroke="black" stroke-width="0.3"/>
<path d="M19.5063 75.3879L10.5563 70.8887V53.787L19.5063 58.2862V75.3879Z" stroke="black" stroke-width="0.3"/>
<path d="M11.7125 71.4696V55.5304L18.35 58.8671V74.8063L11.7125 71.4696Z" stroke="black" stroke-width="0.3"/>
<path d="M12.8688 61.5888V57.2745L17.1937 59.4487V63.763L12.8688 61.5888Z" stroke="black" stroke-width="0.3"/>
<path opacity="0.15" d="M12.8688 58.1013V57.2745L17.1937 59.4487V60.2755L12.8688 58.1013Z" fill="black" stroke="black" stroke-width="0.3"/>
<path d="M31.0687 61.4376L24.4313 58.1009V40.9992L31.0687 44.3358V61.4376Z" stroke="black" stroke-width="0.3"/>
<path d="M25.5875 58.6825V42.7433L29.9125 44.9175V60.8567L25.5875 58.6825Z" stroke="black" stroke-width="0.3"/>
<path d="M26.7438 58.1017V44.4874L28.7562 45.4991V59.1133L26.7438 58.1017Z" stroke="black" stroke-width="0.3"/>
<path opacity="0.15" d="M26.7438 45.3142V44.4874L28.7562 45.4991V46.3258L26.7438 45.3142Z" fill="black" stroke="black" stroke-width="0.3"/>
<path d="M36.85 64.3438L30.2125 61.0071V43.9054L36.85 47.2421V64.3438Z" stroke="black" stroke-width="0.3"/>
<path d="M31.3688 61.5888V45.6495L35.6937 47.8237V63.763L31.3688 61.5888Z" stroke="black" stroke-width="0.3"/>
<path d="M32.525 61.0079V47.3937L34.5375 48.4054V62.0196L32.525 61.0079Z" stroke="black" stroke-width="0.3"/>
<path opacity="0.15" d="M32.525 48.2204V47.3937L34.5375 48.4054V49.2321L32.525 48.2204Z" fill="black" stroke="black" stroke-width="0.3"/>
<path opacity="0.1" d="M7.0875 36.5954V29.9562L39.1625 46.0804V52.7196L7.0875 36.5954ZM7.0875 56.3579V49.7187L39.1625 65.8429V72.4821L7.0875 56.3579Z" fill="black" stroke="black" stroke-width="0.3"/>
<path d="M22.975 57.5196L18.65 59.6938V40.2671L22.975 38.0929V57.5196Z" stroke="black" stroke-width="0.3"/>
<path opacity="0.39" d="M22.975 57.5196L18.65 59.6938V40.2671L22.975 38.0929V57.5196Z" fill="black" stroke="black" stroke-width="0.3"/>
<path d="M18.834 58.775L23.125 56.6178L34.5375 62.3549V66.6692L18.834 58.775Z" stroke="black" stroke-width="0.3"/>
<path opacity="0.6" d="M18.65 57.52V50.8807L34.5375 58.8674V65.5067L18.65 57.52Z" stroke="black" stroke-width="0.3"/>
<path opacity="0.15" d="M31.3294 64.0085L26.9242 55.2611L34.5375 58.8696V65.5137L31.3294 64.0085Z" fill="black" stroke="black" stroke-width="0.3"/>
<path opacity="0.2" d="M18.65 57.5185V50.8735L21.8644 52.3817L27.7013 61.9041L18.65 57.5185Z" stroke="black" stroke-width="0.3"/>
<path d="M18.65 59.8451V57.8558L34.5375 65.8425V67.8318L18.65 59.8451Z" stroke="black" stroke-width="0.3"/>
<path d="M18.65 60.1804L34.5375 68.1671V87.5938L18.65 79.6071V60.1804ZM18.35 40.2671V59.6938L2.4625 51.7071V32.2804L18.35 40.2671Z" fill="#F6F6F6" stroke="black" stroke-width="0.3"/>
<path d="M14.8813 53.3004L5.93125 48.8012V36.3495L14.8813 40.8487V53.3004Z" stroke="black" stroke-width="0.3"/>
<path d="M7.0875 48.2196V38.0929L13.725 41.4296V51.5563L7.0875 48.2196Z" stroke="black" stroke-width="0.3"/>
<path d="M8.24375 47.6388V39.837L12.5687 42.0112V49.813L8.24375 47.6388Z" stroke="black" stroke-width="0.3"/>
<path opacity="0.15" d="M8.24375 40.6638V39.837L12.5687 42.0112V42.838L8.24375 40.6638Z" fill="black" stroke="black" stroke-width="0.3"/>
<path d="M31.0688 81.2001L22.1188 76.7009V64.2492L31.0688 68.7483V81.2001Z" stroke="black" stroke-width="0.3"/>
<path d="M23.275 76.12V65.9933L29.9125 69.33V79.4567L23.275 76.12Z" stroke="black" stroke-width="0.3"/>
<path d="M24.4313 75.5392V67.7374L28.7562 69.9116V77.7133L24.4313 75.5392Z" stroke="black" stroke-width="0.3"/>
<path opacity="0.15" d="M24.4313 68.5642V67.7374L28.7562 69.9116V70.7383L24.4313 68.5642Z" fill="black" stroke="black" stroke-width="0.3"/>
<path d="M34.5375 65.8429V67.8321L18.65 59.8454V57.8562L34.5375 65.8429ZM34.5375 46.0804V48.0696L2.4625 31.9454V29.9562L34.5375 46.0804Z" stroke="black" stroke-width="0.3"/>
<path d="M36.9499 47.305L2.53221 29.8878L20.8626 2.81946L55.2803 20.2367L36.9499 47.305Z" stroke="black" stroke-width="0.3"/>
<path d="M36.9499 47.305L2.53221 29.8878L20.8626 2.81946L55.2803 20.2367L36.9499 47.305Z" fill="#F6F6F6" stroke="black" stroke-width="0.3"/>
<path opacity="0.2" d="M55.2479 20.2203L54.3139 21.1593L20.2125 3.95868L20.871 2.82377L55.2479 20.2203Z" stroke="black" stroke-width="0.3"/>
<path d="M34.8375 87.7454V46.0331L53.239 18.2817L55.4326 19.3844L73.85 28.6429V70.3079L37 88.8325L34.8375 87.7454Z" fill="#242424" stroke="black" stroke-width="0.3"/>
<path d="M36.85 88.7568L34.8375 87.7451V46.2308L36.85 47.2425V88.7568Z" fill="#242424" stroke="black" stroke-width="0.3"/>
<g opacity="0.1">
<path d="M40.0657 71.0746L40.0655 71.0741L40.0543 71.0797C39.8605 71.1772 39.6774 71.1731 39.5344 71.1067C39.3952 71.0421 39.2815 70.9126 39.2312 70.7302C39.2361 70.4811 39.3375 70.1982 39.5086 69.9467C39.6837 69.6894 39.9221 69.4794 40.1776 69.3767L40.1888 69.3722L40.1992 69.3659C40.4646 69.2058 40.67 69.199 40.7957 69.2573C40.9149 69.3126 41.0123 69.4508 41.0123 69.7025C41.0123 69.956 40.9102 70.2468 40.7348 70.5045C40.5596 70.7619 40.3212 70.9718 40.0657 71.0746ZM66.0844 32.8271L66.0731 32.8314L66.0626 32.8374C65.6854 33.0541 65.3631 33.0659 65.1467 32.9628C64.9358 32.8624 64.7842 32.6329 64.7842 32.27C64.7842 31.9037 64.9416 31.4974 65.2051 31.1208C65.4677 30.7457 65.8274 30.4123 66.212 30.1913C66.5892 29.9746 66.9115 29.9629 67.1279 30.0659C67.3388 30.1663 67.4904 30.3959 67.4904 30.7587C67.4904 31.1328 67.3565 31.5702 67.1094 31.9567C66.8627 32.3425 66.5104 32.6665 66.0844 32.8271ZM66.4359 48.5628L66.4443 48.5586L66.4521 48.5533C66.6015 48.4532 66.7189 48.4493 66.7843 48.4785C66.8414 48.504 66.9123 48.5801 66.9123 48.7775C66.9123 49.1944 66.7058 49.6026 66.3012 49.806L66.2928 49.8102L66.285 49.8154C66.1357 49.9155 66.0182 49.9195 65.9528 49.8902C65.8957 49.8647 65.8248 49.7886 65.8248 49.5912C65.8248 49.1743 66.0314 48.7661 66.4359 48.5628ZM58.7509 35.9087C58.7514 35.9083 58.7519 35.9079 58.7524 35.9075H58.7997L58.8145 35.8926C58.8095 35.9068 58.7986 35.9282 58.7761 35.9584C58.7458 35.9989 58.7057 36.0411 58.6579 36.0895C58.6597 36.0797 58.6629 36.0663 58.6683 36.0499C58.6776 36.0219 58.6911 35.9919 58.7071 35.9651C58.7236 35.9376 58.7394 35.9188 58.7509 35.9087ZM55.9146 63.2828L55.9045 63.2862L55.8949 63.291C55.5705 63.454 55.3018 63.4665 55.1266 63.3894C54.9626 63.3173 54.8404 63.1483 54.8404 62.8437C54.8404 62.5341 54.97 62.1856 55.1896 61.8683C55.4084 61.552 55.7081 61.2794 56.0297 61.1178C56.3541 60.9547 56.6228 60.9422 56.798 61.0193C56.962 61.0915 57.0842 61.2604 57.0842 61.565C57.0842 61.8767 56.9531 62.2551 56.7334 62.5865C56.5134 62.9182 56.2194 63.1806 55.9146 63.2828ZM40.0543 75.9622L40.0459 75.9664L40.0382 75.9716C39.8888 76.0718 39.7713 76.0757 39.7059 76.0465C39.6488 76.021 39.5779 75.9448 39.5779 75.7475C39.5779 75.3306 39.7845 74.9224 40.1891 74.719C40.297 74.6648 40.3833 74.6351 40.45 74.6239C40.5164 74.6128 40.5539 74.6214 40.5746 74.6318C40.6084 74.6488 40.6654 74.7116 40.6654 74.9337C40.6654 75.3507 40.4589 75.7588 40.0543 75.9622ZM57.5214 71.9342L57.5326 71.9296L57.5429 71.9234C57.8083 71.7633 58.0137 71.7565 58.1394 71.8148C58.2587 71.8701 58.3561 72.0083 58.3561 72.26C58.3561 72.5135 58.2539 72.8043 58.0785 73.062C57.9034 73.3194 57.665 73.5293 57.4095 73.6321C57.1303 73.7443 56.9468 73.7546 56.8296 73.7055C56.7246 73.6615 56.6289 73.5496 56.5749 73.2916C56.5787 73.0416 56.6803 72.757 56.8523 72.5042C57.0275 72.2469 57.2659 72.0369 57.5214 71.9342ZM68.0553 43.0553L68.0451 43.0587L68.0356 43.0635C67.9554 43.1038 67.8902 43.097 67.8523 43.078C67.818 43.0607 67.7904 43.0265 67.7904 42.965C67.7904 42.8978 67.8251 42.8149 67.8991 42.7281C67.9717 42.6429 68.071 42.5677 68.1703 42.5178C68.2505 42.4775 68.3157 42.4842 68.3535 42.5032C68.3879 42.5205 68.4154 42.5548 68.4154 42.6162C68.4154 42.7074 68.393 42.7918 68.342 42.8636C68.2913 42.935 68.2042 43.0053 68.0553 43.0553ZM47.2308 42.6392L47.242 42.6347L47.2523 42.6284C47.5177 42.4683 47.7231 42.4615 47.8488 42.5198C47.968 42.5751 48.0654 42.7133 48.0654 42.965C48.0654 43.4711 47.6539 44.0121 47.0973 44.3478C46.8319 44.5079 46.6265 44.5147 46.5008 44.4564C46.3816 44.4011 46.2842 44.263 46.2842 44.0112C46.2842 43.7577 46.3863 43.467 46.5617 43.2092C46.7368 42.9519 46.9753 42.7419 47.2308 42.6392ZM42.5842 80.5137C42.5842 80.2041 42.7137 79.8556 42.9333 79.5383C43.1522 79.222 43.4518 78.9494 43.7734 78.7878C44.0978 78.6247 44.3665 78.6122 44.5418 78.6893C44.7058 78.7615 44.8279 78.9304 44.8279 79.235C44.8279 79.5446 44.6984 79.8931 44.4788 80.2104C44.2599 80.5268 43.9603 80.7993 43.6387 80.961C43.3143 81.124 43.0456 81.1365 42.8704 81.0594C42.7063 80.9873 42.5842 80.8183 42.5842 80.5137ZM71.0748 64.4712C71.0748 64.8376 70.9174 65.2438 70.6539 65.6204C70.3913 65.9956 70.0316 66.3289 69.647 66.5499C69.2698 66.7666 68.9474 66.7784 68.7311 66.6753C68.5202 66.5749 68.3686 66.3454 68.3686 65.9825C68.3686 65.6162 68.5259 65.2099 68.7895 64.8333C69.0521 64.4582 69.4117 64.1248 69.7964 63.9038C70.1736 63.6871 70.4959 63.6753 70.7123 63.7784C70.9232 63.8788 71.0748 64.1084 71.0748 64.4712ZM65.9829 57.9928C66.0127 57.9529 66.052 57.9114 66.0988 57.864C66.0938 57.8782 66.0829 57.8995 66.0604 57.9297C66.0307 57.9696 65.9913 58.0111 65.9445 58.0585C65.9496 58.0443 65.9604 58.0229 65.9829 57.9928ZM54.6517 77.5228C54.6814 77.4829 54.7208 77.4414 54.7676 77.394C54.7625 77.4082 54.7517 77.4295 54.7292 77.4597C54.6994 77.4996 54.6601 77.5411 54.6133 77.5885C54.6183 77.5743 54.6292 77.553 54.6517 77.5228ZM50.6092 35.7575C50.6092 36.1238 50.4518 36.5301 50.1882 36.9066C49.9274 37.2794 49.5707 37.6108 49.1888 37.8318C48.8166 37.9901 48.4902 37.9815 48.2655 37.8744C48.0449 37.7693 47.9029 37.5616 47.9029 37.2687C47.9029 36.9024 48.0603 36.4961 48.3239 36.1196C48.5865 35.7444 48.9461 35.4111 49.3308 35.1901C49.708 34.9733 50.0303 34.9616 50.2466 35.0646C50.4576 35.1651 50.6092 35.3946 50.6092 35.7575ZM40.6186 50.7537C40.6186 50.3874 40.7759 49.9811 41.0395 49.6046C41.3021 49.2294 41.6617 48.8961 42.0464 48.6751C42.4236 48.4583 42.7459 48.4466 42.9623 48.5496C43.1732 48.6501 43.3248 48.8796 43.3248 49.2425C43.3248 49.6088 43.1674 50.0151 42.9039 50.3916C42.6413 50.7668 42.2816 51.1002 41.897 51.3212C41.5198 51.5379 41.1974 51.5496 40.9811 51.4466C40.7702 51.3461 40.6186 51.1166 40.6186 50.7537ZM46.2016 68.4415C46.526 68.2784 46.7946 68.266 46.9699 68.3431C47.1339 68.4152 47.2561 68.5841 47.2561 68.8887C47.2561 69.1984 47.1265 69.5468 46.9069 69.8642C46.688 70.1805 46.3884 70.4531 46.0668 70.6147C45.7424 70.7778 45.4737 70.7902 45.2985 70.7132C45.1345 70.641 45.0123 70.4721 45.0123 70.1675C45.0123 69.8579 45.1419 69.5094 45.3614 69.1921C45.5803 68.8757 45.88 68.6032 46.2016 68.4415ZM56.9217 50.405C56.9217 50.0954 57.0512 49.7469 57.2708 49.4296C57.4897 49.1132 57.7893 48.8407 58.1109 48.679C58.4279 48.5197 58.6636 48.5323 58.8254 48.6191C58.988 48.7063 59.1116 48.8873 59.1653 49.141C59.1613 49.4469 59.0324 49.7894 58.8163 50.1017C58.5974 50.418 58.2978 50.6905 57.9762 50.8522C57.6518 51.0153 57.3831 51.0277 57.2079 50.9507C57.0438 50.8785 56.9217 50.7096 56.9217 50.405ZM59.9418 27.6022C59.6174 27.7653 59.3487 27.7777 59.1735 27.7007C59.0095 27.6285 58.8873 27.4596 58.8873 27.155C58.8873 26.8454 59.0169 26.4969 59.2364 26.1796C59.4553 25.8632 59.755 25.5907 60.0766 25.429C60.401 25.2659 60.6696 25.2535 60.8449 25.3306C61.0089 25.4027 61.1311 25.5716 61.1311 25.8762C61.1311 26.1859 61.0015 26.5343 60.7819 26.8517C60.563 27.168 60.2634 27.4406 59.9418 27.6022ZM68.4842 39.71C68.4842 39.5256 68.5751 39.3499 68.7484 39.2628C68.801 39.2363 68.8385 39.2209 68.8651 39.2136C68.8722 39.2413 68.8779 39.2877 68.8779 39.3612C68.8779 39.535 68.7972 39.7009 68.643 39.7924C68.602 39.7923 68.5695 39.7917 68.5418 39.7894C68.5131 39.787 68.4985 39.7833 68.4919 39.7809C68.489 39.7726 68.4842 39.752 68.4842 39.71ZM70.1029 61.9137C70.1029 61.7402 70.1834 61.5744 70.3374 61.4828C70.3853 61.4838 70.4281 61.4876 70.4606 61.5007C70.4776 61.5076 70.4841 61.5141 70.4869 61.5181C70.4891 61.5211 70.4967 61.5328 70.4967 61.565C70.4967 61.7387 70.416 61.9047 70.2617 61.9962C70.2207 61.996 70.1883 61.9955 70.1606 61.9931C70.1319 61.9907 70.1173 61.987 70.1107 61.9847C70.1078 61.9763 70.1029 61.9557 70.1029 61.9137ZM52.3297 55.7703C52.4098 55.73 52.475 55.7367 52.5129 55.7557C52.5473 55.773 52.5748 55.8073 52.5748 55.8687C52.5748 55.936 52.5402 56.0188 52.4661 56.1056C52.3935 56.1908 52.2943 56.266 52.1949 56.316C52.1148 56.3563 52.0496 56.3495 52.0117 56.3305C51.9773 56.3132 51.9498 56.279 51.9498 56.2175C51.9498 56.1503 51.9844 56.0674 52.0585 55.9806C52.1311 55.8954 52.2303 55.8202 52.3297 55.7703Z" fill="black" stroke="black" stroke-width="0.3"/>
</g>
<g opacity="0.1">
<mask id="path-42-inside-1_1136_1912" fill="white">
<path d="M50.2965 35.525C50.2965 36.3387 49.6027 37.385 48.7934 37.7338C48.5621 37.85 48.3309 37.9663 48.0996 37.85C48.3309 37.9663 48.7934 37.9663 49.1402 37.7338C49.9496 37.2688 50.6434 36.3387 50.6434 35.525C50.6434 34.9438 50.2965 34.595 49.834 34.595C50.1809 34.8275 50.2965 35.1763 50.2965 35.525ZM52.2621 55.6362V55.7525C52.2621 55.985 52.0309 56.2175 51.7996 56.3338C51.7996 56.45 52.0309 56.5662 52.1465 56.45C52.3777 56.3337 52.609 56.1012 52.609 55.8688C52.7246 55.6363 52.4934 55.52 52.2621 55.6362ZM47.6371 42.3838C47.7527 42.5 47.8684 42.6162 47.8684 42.8487C47.8684 43.43 47.4059 44.1275 46.8277 44.36C46.7121 44.4762 46.5965 44.4763 46.4809 44.4763C46.7121 44.5925 46.9434 44.5925 47.2902 44.4763C47.8684 44.2438 48.3309 43.5463 48.3309 42.965C48.2152 42.5 47.984 42.2675 47.6371 42.3838ZM42.6652 48.3125C42.8965 48.4288 43.1277 48.7775 43.1277 49.1263C43.1277 49.94 42.434 50.9862 41.6246 51.335C41.3934 51.4512 41.1621 51.5675 40.9309 51.4513C41.1621 51.5675 41.6246 51.5675 41.9715 51.335C42.7809 50.87 43.4746 49.94 43.4746 49.1263C43.4746 48.6613 43.1277 48.3125 42.6652 48.3125ZM56.5402 60.8675C56.7715 60.9837 56.8871 61.2163 56.8871 61.565C56.8871 62.2625 56.309 63.0763 55.6152 63.425C55.384 63.5413 55.2684 63.5412 55.0371 63.5412C55.2684 63.6575 55.6152 63.6575 55.9621 63.5412C56.6559 63.1925 57.234 62.3787 57.234 61.6813C57.234 61.1 56.8871 60.8675 56.5402 60.8675ZM66.0215 57.7287C65.9059 57.845 65.7902 57.9613 65.7902 58.0775C65.7902 58.1938 65.9059 58.31 66.0215 58.1938C66.1371 58.0775 66.2527 57.9613 66.2527 57.845C66.2527 57.7288 66.1371 57.6125 66.0215 57.7287ZM60.934 25.76C60.934 26.4575 60.3559 27.2713 59.6621 27.62C59.4309 27.7363 59.3152 27.7362 59.084 27.7362C59.3152 27.8525 59.6621 27.8525 60.009 27.7362C60.7027 27.3875 61.2809 26.5738 61.2809 25.8763C61.2809 25.4113 60.934 25.0625 60.5871 25.0625C60.8184 25.1788 60.934 25.4113 60.934 25.76ZM70.6465 61.565C70.6465 61.3325 70.5309 61.3325 70.2996 61.3325C70.2996 61.565 70.184 61.6812 69.9527 61.7975C69.9527 61.9137 70.0684 62.03 70.2996 61.9138C70.4152 62.03 70.6465 61.7975 70.6465 61.565ZM58.5059 36.1062C58.5059 36.2225 58.6215 36.3387 58.7371 36.2225C58.8527 36.1062 58.9684 35.99 58.9684 35.8737C58.9684 35.7575 58.8527 35.6413 58.7371 35.7575C58.6215 35.7575 58.5059 35.99 58.5059 36.1062ZM67.2934 30.6425C67.2934 31.4562 66.5996 32.5025 65.7902 32.8513C65.559 32.9675 65.3277 33.0837 65.0965 32.9675C65.3277 33.0837 65.7902 33.0838 66.1371 32.8513C66.9465 32.3863 67.6402 31.4562 67.6402 30.6425C67.6402 30.0612 67.2934 29.7125 66.8309 29.7125C67.1777 29.945 67.2934 30.2937 67.2934 30.6425ZM68.2184 42.3838V42.5C68.2184 42.7325 67.9871 42.965 67.7559 43.0813C67.7559 43.1975 67.9871 43.3137 68.1027 43.1975C68.334 43.0812 68.5652 42.8487 68.5652 42.6162C68.5652 42.3837 68.4496 42.2675 68.2184 42.3838ZM46.7121 68.075C46.9434 68.1912 47.059 68.4237 47.059 68.7725C47.059 69.47 46.4809 70.2837 45.7871 70.6325C45.5559 70.7487 45.4402 70.7488 45.209 70.7488C45.4402 70.865 45.7871 70.865 46.134 70.7488C46.8277 70.4 47.4059 69.5863 47.4059 68.8888C47.4059 68.3075 47.059 68.075 46.7121 68.075ZM44.284 78.4213C44.5152 78.5375 44.6309 78.77 44.6309 79.1188C44.6309 79.8162 44.0527 80.63 43.359 80.9787C43.1277 81.095 43.0121 81.095 42.7809 81.095C43.0121 81.2112 43.359 81.2112 43.7059 81.095C44.3996 80.7462 44.9777 79.9325 44.9777 79.235C44.9777 78.77 44.7465 78.4213 44.284 78.4213ZM66.484 48.3125C66.5996 48.4288 66.5996 48.545 66.5996 48.6612C66.5996 49.1262 66.2527 49.5912 65.9059 49.8237C65.7902 49.8237 65.7902 49.8238 65.6746 49.94C65.7902 50.0563 66.0215 50.0563 66.2527 49.94C66.7152 49.7075 66.9465 49.2425 66.9465 48.7775C67.0621 48.4288 66.8309 48.3125 66.484 48.3125ZM54.5746 77.2588C54.459 77.375 54.3434 77.4912 54.3434 77.6075C54.3434 77.7237 54.459 77.84 54.5746 77.7238C54.6902 77.6075 54.8059 77.4913 54.8059 77.375C54.8059 77.2588 54.8059 77.1425 54.5746 77.2588ZM40.584 69.005C40.6996 69.1213 40.8152 69.2375 40.8152 69.47C40.8152 70.0513 40.3527 70.7488 39.7746 70.9813C39.659 71.0975 39.5434 71.0975 39.4277 71.0975C39.659 71.2137 39.8902 71.2137 40.2371 71.0975C40.8152 70.865 41.2777 70.1675 41.2777 69.5863C41.1621 69.2375 40.9309 69.005 40.584 69.005ZM58.5059 48.4287C58.7371 48.545 58.8527 48.7775 58.8527 49.1263C58.8527 49.8238 58.2746 50.6375 57.5809 50.9862C57.3496 51.1025 57.234 51.1025 57.0027 51.1025C57.234 51.2188 57.5809 51.2188 57.9277 51.1025C58.6215 50.7538 59.1996 49.94 59.1996 49.2425C59.1996 48.6612 58.9684 48.4287 58.5059 48.4287ZM70.4152 63.5412C70.6465 63.6575 70.8777 64.0062 70.8777 64.355C70.8777 65.1688 70.184 66.215 69.3746 66.5638C69.1434 66.68 68.9121 66.7962 68.6809 66.68C68.9121 66.7962 69.3746 66.7963 69.7215 66.5638C70.5309 66.0988 71.2246 65.1688 71.2246 64.355C71.2246 63.89 70.8777 63.5412 70.4152 63.5412ZM40.3527 74.585C40.4684 74.7012 40.4684 74.8175 40.4684 74.9338C40.4684 75.3988 40.1215 75.8638 39.7746 76.0963C39.659 76.0963 39.659 76.0963 39.5434 76.2125C39.659 76.3288 39.8902 76.3288 40.1215 76.2125C40.584 75.98 40.8152 75.515 40.8152 75.05C40.9309 74.7013 40.6996 74.4688 40.3527 74.585ZM57.8121 71.6787C57.9277 71.795 58.0434 71.9113 58.0434 72.1437C58.0434 72.725 57.5809 73.4225 57.0027 73.655C56.8871 73.7713 56.7715 73.7713 56.6559 73.7713C56.8871 73.8875 57.1184 73.8875 57.4652 73.7713C58.0434 73.5388 58.5059 72.8412 58.5059 72.26C58.5059 71.795 58.2746 71.5625 57.8121 71.6787ZM68.6809 39.1287C68.6809 39.3612 68.5652 39.5937 68.334 39.71C68.334 39.8262 68.4496 39.9425 68.6809 39.8263C68.9121 39.71 69.0277 39.4775 69.0277 39.245C69.0277 39.0125 68.9121 39.0125 68.6809 39.1287Z"/>
</mask>
<path d="M50.2965 35.525C50.2965 36.3387 49.6027 37.385 48.7934 37.7338C48.5621 37.85 48.3309 37.9663 48.0996 37.85C48.3309 37.9663 48.7934 37.9663 49.1402 37.7338C49.9496 37.2688 50.6434 36.3387 50.6434 35.525C50.6434 34.9438 50.2965 34.595 49.834 34.595C50.1809 34.8275 50.2965 35.1763 50.2965 35.525ZM52.2621 55.6362V55.7525C52.2621 55.985 52.0309 56.2175 51.7996 56.3338C51.7996 56.45 52.0309 56.5662 52.1465 56.45C52.3777 56.3337 52.609 56.1012 52.609 55.8688C52.7246 55.6363 52.4934 55.52 52.2621 55.6362ZM47.6371 42.3838C47.7527 42.5 47.8684 42.6162 47.8684 42.8487C47.8684 43.43 47.4059 44.1275 46.8277 44.36C46.7121 44.4762 46.5965 44.4763 46.4809 44.4763C46.7121 44.5925 46.9434 44.5925 47.2902 44.4763C47.8684 44.2438 48.3309 43.5463 48.3309 42.965C48.2152 42.5 47.984 42.2675 47.6371 42.3838ZM42.6652 48.3125C42.8965 48.4288 43.1277 48.7775 43.1277 49.1263C43.1277 49.94 42.434 50.9862 41.6246 51.335C41.3934 51.4512 41.1621 51.5675 40.9309 51.4513C41.1621 51.5675 41.6246 51.5675 41.9715 51.335C42.7809 50.87 43.4746 49.94 43.4746 49.1263C43.4746 48.6613 43.1277 48.3125 42.6652 48.3125ZM56.5402 60.8675C56.7715 60.9837 56.8871 61.2163 56.8871 61.565C56.8871 62.2625 56.309 63.0763 55.6152 63.425C55.384 63.5413 55.2684 63.5412 55.0371 63.5412C55.2684 63.6575 55.6152 63.6575 55.9621 63.5412C56.6559 63.1925 57.234 62.3787 57.234 61.6813C57.234 61.1 56.8871 60.8675 56.5402 60.8675ZM66.0215 57.7287C65.9059 57.845 65.7902 57.9613 65.7902 58.0775C65.7902 58.1938 65.9059 58.31 66.0215 58.1938C66.1371 58.0775 66.2527 57.9613 66.2527 57.845C66.2527 57.7288 66.1371 57.6125 66.0215 57.7287ZM60.934 25.76C60.934 26.4575 60.3559 27.2713 59.6621 27.62C59.4309 27.7363 59.3152 27.7362 59.084 27.7362C59.3152 27.8525 59.6621 27.8525 60.009 27.7362C60.7027 27.3875 61.2809 26.5738 61.2809 25.8763C61.2809 25.4113 60.934 25.0625 60.5871 25.0625C60.8184 25.1788 60.934 25.4113 60.934 25.76ZM70.6465 61.565C70.6465 61.3325 70.5309 61.3325 70.2996 61.3325C70.2996 61.565 70.184 61.6812 69.9527 61.7975C69.9527 61.9137 70.0684 62.03 70.2996 61.9138C70.4152 62.03 70.6465 61.7975 70.6465 61.565ZM58.5059 36.1062C58.5059 36.2225 58.6215 36.3387 58.7371 36.2225C58.8527 36.1062 58.9684 35.99 58.9684 35.8737C58.9684 35.7575 58.8527 35.6413 58.7371 35.7575C58.6215 35.7575 58.5059 35.99 58.5059 36.1062ZM67.2934 30.6425C67.2934 31.4562 66.5996 32.5025 65.7902 32.8513C65.559 32.9675 65.3277 33.0837 65.0965 32.9675C65.3277 33.0837 65.7902 33.0838 66.1371 32.8513C66.9465 32.3863 67.6402 31.4562 67.6402 30.6425C67.6402 30.0612 67.2934 29.7125 66.8309 29.7125C67.1777 29.945 67.2934 30.2937 67.2934 30.6425ZM68.2184 42.3838V42.5C68.2184 42.7325 67.9871 42.965 67.7559 43.0813C67.7559 43.1975 67.9871 43.3137 68.1027 43.1975C68.334 43.0812 68.5652 42.8487 68.5652 42.6162C68.5652 42.3837 68.4496 42.2675 68.2184 42.3838ZM46.7121 68.075C46.9434 68.1912 47.059 68.4237 47.059 68.7725C47.059 69.47 46.4809 70.2837 45.7871 70.6325C45.5559 70.7487 45.4402 70.7488 45.209 70.7488C45.4402 70.865 45.7871 70.865 46.134 70.7488C46.8277 70.4 47.4059 69.5863 47.4059 68.8888C47.4059 68.3075 47.059 68.075 46.7121 68.075ZM44.284 78.4213C44.5152 78.5375 44.6309 78.77 44.6309 79.1188C44.6309 79.8162 44.0527 80.63 43.359 80.9787C43.1277 81.095 43.0121 81.095 42.7809 81.095C43.0121 81.2112 43.359 81.2112 43.7059 81.095C44.3996 80.7462 44.9777 79.9325 44.9777 79.235C44.9777 78.77 44.7465 78.4213 44.284 78.4213ZM66.484 48.3125C66.5996 48.4288 66.5996 48.545 66.5996 48.6612C66.5996 49.1262 66.2527 49.5912 65.9059 49.8237C65.7902 49.8237 65.7902 49.8238 65.6746 49.94C65.7902 50.0563 66.0215 50.0563 66.2527 49.94C66.7152 49.7075 66.9465 49.2425 66.9465 48.7775C67.0621 48.4288 66.8309 48.3125 66.484 48.3125ZM54.5746 77.2588C54.459 77.375 54.3434 77.4912 54.3434 77.6075C54.3434 77.7237 54.459 77.84 54.5746 77.7238C54.6902 77.6075 54.8059 77.4913 54.8059 77.375C54.8059 77.2588 54.8059 77.1425 54.5746 77.2588ZM40.584 69.005C40.6996 69.1213 40.8152 69.2375 40.8152 69.47C40.8152 70.0513 40.3527 70.7488 39.7746 70.9813C39.659 71.0975 39.5434 71.0975 39.4277 71.0975C39.659 71.2137 39.8902 71.2137 40.2371 71.0975C40.8152 70.865 41.2777 70.1675 41.2777 69.5863C41.1621 69.2375 40.9309 69.005 40.584 69.005ZM58.5059 48.4287C58.7371 48.545 58.8527 48.7775 58.8527 49.1263C58.8527 49.8238 58.2746 50.6375 57.5809 50.9862C57.3496 51.1025 57.234 51.1025 57.0027 51.1025C57.234 51.2188 57.5809 51.2188 57.9277 51.1025C58.6215 50.7538 59.1996 49.94 59.1996 49.2425C59.1996 48.6612 58.9684 48.4287 58.5059 48.4287ZM70.4152 63.5412C70.6465 63.6575 70.8777 64.0062 70.8777 64.355C70.8777 65.1688 70.184 66.215 69.3746 66.5638C69.1434 66.68 68.9121 66.7962 68.6809 66.68C68.9121 66.7962 69.3746 66.7963 69.7215 66.5638C70.5309 66.0988 71.2246 65.1688 71.2246 64.355C71.2246 63.89 70.8777 63.5412 70.4152 63.5412ZM40.3527 74.585C40.4684 74.7012 40.4684 74.8175 40.4684 74.9338C40.4684 75.3988 40.1215 75.8638 39.7746 76.0963C39.659 76.0963 39.659 76.0963 39.5434 76.2125C39.659 76.3288 39.8902 76.3288 40.1215 76.2125C40.584 75.98 40.8152 75.515 40.8152 75.05C40.9309 74.7013 40.6996 74.4688 40.3527 74.585ZM57.8121 71.6787C57.9277 71.795 58.0434 71.9113 58.0434 72.1437C58.0434 72.725 57.5809 73.4225 57.0027 73.655C56.8871 73.7713 56.7715 73.7713 56.6559 73.7713C56.8871 73.8875 57.1184 73.8875 57.4652 73.7713C58.0434 73.5388 58.5059 72.8412 58.5059 72.26C58.5059 71.795 58.2746 71.5625 57.8121 71.6787ZM68.6809 39.1287C68.6809 39.3612 68.5652 39.5937 68.334 39.71C68.334 39.8262 68.4496 39.9425 68.6809 39.8263C68.9121 39.71 69.0277 39.4775 69.0277 39.245C69.0277 39.0125 68.9121 39.0125 68.6809 39.1287Z" fill="black" stroke="black" stroke-width="0.6" mask="url(#path-42-inside-1_1136_1912)"/>
</g>
<path d="M73.85 28.6425V70.3075L37.15 88.7567V47.1952L55.5515 19.4438L73.85 28.6425Z" fill="#242424" stroke="black" stroke-width="0.3"/>
<path opacity="0.06" d="M34.5375 87.8817L18.65 79.895V60.225V60.1325L18.5674 60.091L2.4625 51.995V30.2433L34.5375 46.3675V48.3567L18.5674 40.3285L18.35 40.2192V40.4625V50.925V51.0175L18.4326 51.059L34.5375 59.155V87.8817Z" fill="black" stroke="black" stroke-width="0.3"/>
<path d="M18.35 79.4568L2.64647 71.5625L6.9375 69.4054L18.35 75.1425V79.4568Z" stroke="black" stroke-width="0.3"/>
<path opacity="0.1" d="M18.35 79.4568L2.64647 71.5625L6.9375 69.4054L18.35 75.1425V79.4568Z" fill="black" stroke="black" stroke-width="0.3"/>
<path opacity="0.06" d="M37.225 47.3675V86.5567L5.15 70.4325V31.2433L37.225 47.3675Z" fill="black" stroke="black" stroke-width="0.3"/>
</svg>
