<svg width="83" height="83" viewBox="0 0 83 83" fill="none" xmlns="http://www.w3.org/2000/svg">
<path d="M50.8178 44.6865L42.9877 49.0878L35.1576 44.6865L42.9877 40.2851L50.8178 44.6865ZM34.6372 53.7407V45.5411L42.4877 49.9539V58.1535L34.6372 53.7407ZM51.3382 53.7407L43.4877 58.1535V49.9539L51.3382 45.5411V53.7407ZM42.6152 28.5879L24.9418 38.9147L17.6241 34.7108L42.9879 20.4292L68.3518 34.7109L61.0324 38.9158L43.1172 28.5865L42.8658 28.4415L42.6152 28.5879ZM17.1611 34.9715L17.292 34.8978L17.1611 35.1256V34.9715ZM17.1611 35.5981L24.4019 39.7579V59.9497V60.2392L24.6531 60.3834L42.4874 70.618L42.4874 77.8072L17.1611 63.6649L17.1611 35.5981ZM42.9879 78.0867L42.8983 78.0367H43.0774L42.9879 78.0867ZM68.8146 63.6649L43.4874 77.8078L43.4874 70.4833L61.3207 60.3848L61.5743 60.2412V59.9497V39.7577L68.8146 35.5982V63.6649ZM60.5743 59.6582L42.8691 69.6842L25.4019 59.6601V39.804L42.8691 29.5977L60.5743 39.806V59.6582ZM8.41773 69.5491L42.4885 88.879V98.413L0.5 74.1709L0.500005 26.0268L8.16446 30.43V69.1142V69.4054L8.41773 69.5491ZM42.9893 98.7021L42.6678 98.5165H43.3107L42.9893 98.7021ZM43.4885 98.4138V88.8799L77.5607 69.5491L77.814 69.4054V69.1142V30.4298L85.4785 26.0265V74.1709L43.4885 98.4138ZM42.9893 0.578651L85.0834 25.1002L77.2899 29.5776L43.2359 10.2572L42.9892 10.1172L42.7425 10.2572L8.68836 29.5777L0.89486 25.1004L42.9893 0.578651ZM42.9892 11.2669L76.814 30.4573V68.823L42.9892 88.0134L9.16446 68.823V30.4573L42.9892 11.2669ZM43.2327 39.2757L42.9877 39.138L42.7427 39.2757L33.8922 44.2506L33.6372 44.394V44.6865V54.0332V54.3257L33.8922 54.4691L42.7427 59.444L42.9877 59.5817L43.2327 59.444L52.0832 54.4691L52.3382 54.3257V54.0332V44.6865V44.394L52.0832 44.2506L43.2327 39.2757ZM43.2332 19.4197L42.9879 19.2816L42.7425 19.4197L16.4158 34.2435L16.1611 34.3869V34.6792L16.1611 63.9584V64.2519L16.4173 64.395L42.7441 79.0959L42.9879 79.2321L43.2316 79.0959L69.5584 64.395L69.8146 64.2519V63.9584V34.6792V34.3869L69.5599 34.2435L43.2332 19.4197Z" stroke="#242424"/>
</svg>
