<svg width="82" height="88" viewBox="0 0 82 88" fill="none" xmlns="http://www.w3.org/2000/svg">
<mask id="path-1-inside-1_1561_17226" fill="white">
<path d="M6.45352 61.3872C10.3141 60.4959 14.1663 62.903 15.0576 66.7636C15.9489 70.6242 13.5418 74.4764 9.68119 75.3677C5.82056 76.259 1.96836 73.8519 1.07707 69.9913C0.185769 66.1307 2.59289 62.2785 6.45352 61.3872Z"/>
<path d="M9.919 75.9766C13.3504 73.9955 17.738 75.1712 19.7191 78.6025C21.7002 82.0339 20.5245 86.4215 17.0932 88.4026C13.6618 90.3837 9.27417 89.208 7.29308 85.7767C5.31199 82.3453 6.48765 77.9577 9.919 75.9766Z"/>
<path d="M17.5005 88.9165C20.2027 86.0188 24.7424 85.8602 27.6401 88.5624C30.5379 91.2646 30.6964 95.8043 27.9942 98.7021C25.292 101.6 20.7524 101.758 17.8546 99.0562C14.9568 96.354 14.7983 91.8143 17.5005 88.9165Z"/>
<path d="M28.5345 99.0725C30.2714 95.5113 34.5663 94.0324 38.1275 95.7693C41.6887 97.5062 43.1675 101.801 41.4306 105.362C39.6937 108.924 35.3988 110.402 31.8376 108.666C28.2764 106.929 26.7975 102.634 28.5345 99.0725Z"/>
<path d="M42.0567 105.56C42.6765 101.646 46.3514 98.9762 50.2648 99.5961C54.1782 100.216 56.8482 103.891 56.2284 107.804C55.6085 111.718 51.9336 114.388 48.0202 113.768C44.1068 113.148 41.4369 109.473 42.0567 105.56Z"/>
<path d="M56.8813 107.81C56.3299 103.887 59.0636 100.259 62.9872 99.7073C66.9108 99.1559 70.5386 101.89 71.09 105.813C71.6414 109.737 68.9077 113.365 64.9841 113.916C61.0605 114.467 57.4328 111.734 56.8813 107.81Z"/>
<path d="M71.7179 105.626C70.0434 102.035 71.597 97.7668 75.188 96.0923C78.779 94.4178 83.0474 95.9714 84.7219 99.5624C86.3964 103.153 84.8428 107.422 81.2519 109.096C77.6609 110.771 73.3924 109.217 71.7179 105.626Z"/>
<path d="M85.2704 99.2006C82.6191 96.2561 82.8569 91.7199 85.8013 89.0687C88.7458 86.4175 93.282 86.6552 95.9332 89.5997C98.5844 92.5442 98.3467 97.0804 95.4022 99.7316C92.4578 102.383 87.9216 102.145 85.2704 99.2006Z"/>
<path d="M96.3495 89.0941C92.9533 87.0534 91.8544 82.6459 93.895 79.2496C95.9357 75.8534 100.343 74.7545 103.739 76.7951C107.136 78.8358 108.235 83.2433 106.194 86.6396C104.153 90.0358 99.7458 91.1347 96.3495 89.0941Z"/>
<path d="M103.988 76.1907C100.144 75.2322 97.8043 71.3386 98.7628 67.4941C99.7213 63.6496 103.615 61.3101 107.459 62.2686C111.304 63.2271 113.643 67.1208 112.685 70.9653C111.726 74.8097 107.833 77.1493 103.988 76.1907Z"/>
<path d="M104.319 38.7926C100.458 39.6839 98.0513 43.5361 98.9426 47.3968C99.8339 51.2574 103.686 53.6645 107.547 52.7732C111.407 51.8819 113.814 48.0297 112.923 44.1691C112.032 40.3084 108.18 37.9013 104.319 38.7926Z"/>
<path d="M96.9043 25.7572C93.4729 27.7383 92.2972 32.1259 94.2783 35.5573C96.2594 38.9886 100.647 40.1643 104.078 38.1832C107.51 36.2021 108.685 31.8145 106.704 28.3831C104.723 24.9518 100.336 23.7761 96.9043 25.7572Z"/>
<path d="M86.0038 15.4599C83.3016 18.3577 83.4601 22.8973 86.3579 25.5995C89.2556 28.3017 93.7953 28.1432 96.4975 25.2454C99.1997 22.3477 99.0412 17.808 96.1434 15.1058C93.2457 12.4036 88.706 12.5621 86.0038 15.4599Z"/>
<path d="M72.5682 8.79897C70.8313 12.3602 72.3101 16.6551 75.8713 18.392C79.4325 20.1289 83.7274 18.6501 85.4643 15.0889C87.2013 11.5277 85.7224 7.23273 82.1612 5.49583C78.6 3.75892 74.3051 5.23779 72.5682 8.79897Z"/>
<path d="M57.7727 6.35817C57.1529 10.2716 59.8228 13.9465 63.7362 14.5663C67.6496 15.1861 71.3245 12.5161 71.9444 8.60274C72.5642 4.68934 69.8942 1.01444 65.9808 0.394619C62.0674 -0.225203 58.3925 2.44477 57.7727 6.35817Z"/>
<path d="M42.9071 8.34929C43.4586 12.2729 47.0863 15.0066 51.0099 14.4552C54.9336 13.9038 57.6673 10.276 57.1158 6.35239C56.5644 2.42877 52.9367 -0.304936 49.013 0.246493C45.0894 0.797922 42.3557 4.42567 42.9071 8.34929Z"/>
<path d="M29.2758 14.5983C30.9503 18.1892 35.2188 19.7428 38.8098 18.0683C42.4007 16.3939 43.9543 12.1254 42.2798 8.53442C40.6053 4.94346 36.3369 3.38986 32.7459 5.06435C29.1549 6.73884 27.6013 11.0073 29.2758 14.5983Z"/>
<path d="M18.0674 24.5606C20.7186 27.505 25.2549 27.7428 28.1993 25.0916C31.1438 22.4403 31.3815 17.9041 28.7303 14.9597C26.0791 12.0152 21.5429 11.7775 18.5984 14.4287C15.6539 17.0799 15.4162 21.6161 18.0674 24.5606Z"/>
<path d="M10.2619 37.3641C13.6581 39.4048 18.0656 38.3059 20.1063 34.9096C22.147 31.5133 21.0481 27.1059 17.6518 25.0652C14.2556 23.0245 9.84808 24.1234 7.80741 27.5197C5.76673 30.9159 6.86565 35.3234 10.2619 37.3641Z"/>
<path d="M6.53911 51.8924C10.3836 52.851 14.2772 50.5114 15.2358 46.667C16.1943 42.8225 13.8548 38.9288 10.0103 37.9703C6.1658 37.0118 2.27217 39.3513 1.31364 43.1958C0.355099 47.0403 2.69462 50.9339 6.53911 51.8924Z"/>
<path d="M21.8367 60.0763C24.5224 59.4562 27.2023 61.1308 27.8224 63.8166C28.4425 66.5023 26.7679 69.1822 24.0821 69.8023C21.3963 70.4224 18.7164 68.7478 18.0964 66.062C17.4763 63.3762 19.1509 60.6963 21.8367 60.0763Z"/>
<path d="M24.2468 70.2253C26.6339 68.8471 29.6863 69.665 31.0646 72.0521C32.4428 74.4392 31.6249 77.4917 29.2377 78.8699C26.8506 80.2481 23.7982 79.4302 22.42 77.0431C21.0418 74.6559 21.8597 71.6035 24.2468 70.2253Z"/>
<path d="M29.5225 79.2282C31.4023 77.2122 34.5605 77.102 36.5764 78.9818C38.5923 80.8617 38.7026 84.0199 36.8228 86.0358C34.9429 88.0517 31.7847 88.162 29.7688 86.2821C27.7529 84.4022 27.6426 81.2441 29.5225 79.2282Z"/>
<path d="M37.197 86.293C38.4053 83.8156 41.3933 82.7868 43.8707 83.9951C46.3482 85.2034 47.377 88.1914 46.1687 90.6688C44.9603 93.1463 41.9724 94.1751 39.4949 92.9668C37.0175 91.7584 35.9887 88.7705 37.197 86.293Z"/>
<path d="M46.6034 90.8067C47.0346 88.0842 49.5912 86.2268 52.3137 86.658C55.0361 87.0891 56.8936 89.6457 56.4624 92.3682C56.0312 95.0907 53.4746 96.9481 50.7521 96.5169C48.0297 96.0857 46.1722 93.5292 46.6034 90.8067Z"/>
<path d="M56.9198 92.3717C56.5361 89.6421 58.4379 87.1183 61.1675 86.7347C63.8971 86.3511 66.4209 88.2529 66.8045 90.9825C67.1881 93.7121 65.2863 96.2358 62.5567 96.6194C59.8271 97.0031 57.3034 95.1013 56.9198 92.3717Z"/>
<path d="M67.2413 90.8534C66.0764 88.3552 67.1572 85.3857 69.6554 84.2208C72.1536 83.0559 75.1231 84.1367 76.288 86.6349C77.4529 89.133 76.3721 92.1026 73.8739 93.2675C71.3758 94.4324 68.4062 93.3516 67.2413 90.8534Z"/>
<path d="M76.6673 86.3828C74.8229 84.3344 74.9882 81.1787 77.0367 79.3343C79.0851 77.4899 82.2408 77.6553 84.0852 79.7037C85.9296 81.7521 85.7643 84.9078 83.7158 86.7522C81.6674 88.5966 78.5117 88.4313 76.6673 86.3828Z"/>
<path d="M84.376 79.3519C82.0132 77.9323 81.2487 74.8661 82.6684 72.5033C84.0881 70.1406 87.1543 69.3761 89.517 70.7958C91.8797 72.2155 92.6442 75.2817 91.2245 77.6444C89.8049 80.0071 86.7387 80.7716 84.376 79.3519Z"/>
<path d="M89.692 70.3754C87.0174 69.7086 85.3899 66.9998 86.0567 64.3253C86.7236 61.6508 89.4323 60.0232 92.1068 60.69C94.7814 61.3569 96.4089 64.0656 95.7421 66.7401C95.0753 69.4147 92.3665 71.0422 89.692 70.3754Z"/>
<path d="M89.9199 44.3588C87.2341 44.9789 85.5595 47.6588 86.1796 50.3445C86.7997 53.0303 89.4796 54.7049 92.1653 54.0849C94.8511 53.4648 96.5257 50.7849 95.9056 48.0991C95.2856 45.4133 92.6057 43.7387 89.9199 44.3588Z"/>
<path d="M84.7608 35.2908C82.3736 36.669 81.5557 39.7214 82.934 42.1085C84.3122 44.4956 87.3646 45.3135 89.7517 43.9353C92.1388 42.5571 92.9567 39.5047 91.5785 37.1176C90.2003 34.7304 87.1479 33.9125 84.7608 35.2908Z"/>
<path d="M77.1776 28.1262C75.2978 30.1421 75.408 33.3003 77.424 35.1801C79.4399 37.06 82.598 36.9497 84.4779 34.9338C86.3578 32.9179 86.2475 29.7597 84.2316 27.8799C82.2157 26 79.0575 26.1103 77.1776 28.1262Z"/>
<path d="M67.8296 23.4923C66.6213 25.9698 67.6501 28.9577 70.1276 30.166C72.605 31.3743 75.5929 30.3455 76.8013 27.8681C78.0096 25.3906 76.9808 22.4027 74.5033 21.1944C72.0259 19.986 69.038 21.0149 67.8296 23.4923Z"/>
<path d="M57.536 21.794C57.1048 24.5164 58.9622 27.073 61.6847 27.5042C64.4072 27.9354 66.9638 26.078 67.395 23.3555C67.8262 20.633 65.9687 18.0764 63.2462 17.6452C60.5237 17.214 57.9672 19.0715 57.536 21.794Z"/>
<path d="M47.1951 23.1797C47.5787 25.9093 50.1025 27.8111 52.8321 27.4275C55.5617 27.0439 57.4635 24.5201 57.0798 21.7905C56.6962 19.0609 54.1725 17.1591 51.4429 17.5428C48.7133 17.9264 46.8115 20.4501 47.1951 23.1797Z"/>
<path d="M37.7126 27.5262C38.8775 30.0244 41.847 31.1052 44.3452 29.9403C46.8434 28.7754 47.9242 25.8059 46.7593 23.3077C45.5944 20.8095 42.6248 19.7287 40.1267 20.8936C37.6285 22.0586 36.5477 25.0281 37.7126 27.5262Z"/>
<path d="M29.914 34.4578C31.7584 36.5062 34.9142 36.6716 36.9626 34.8272C39.011 32.9828 39.1764 29.827 37.332 27.7786C35.4876 25.7302 32.3319 25.5648 30.2834 27.4092C28.235 29.2536 28.0696 32.4093 29.914 34.4578Z"/>
<path d="M24.4836 43.3653C26.8463 44.7849 29.9125 44.0204 31.3322 41.6577C32.7519 39.295 31.9874 36.2288 29.6247 34.8091C27.2619 33.3895 24.1957 34.154 22.7761 36.5167C21.3564 38.8794 22.1209 41.9456 24.4836 43.3653Z"/>
<path d="M21.8952 53.4723C24.5697 54.1391 27.2784 52.5116 27.9453 49.837C28.6121 47.1625 26.9845 44.4538 24.31 43.7869C21.6355 43.1201 18.9267 44.7476 18.2599 47.4222C17.5931 50.0967 19.2206 52.8055 21.8952 53.4723Z"/>
<path d="M32.1634 59.1972C34.0605 58.7592 35.9534 59.9421 36.3914 61.8391C36.8293 63.7362 35.6465 65.6291 33.7495 66.0671C31.8524 66.5051 29.9595 65.3222 29.5215 63.4252C29.0835 61.5281 30.2664 59.6352 32.1634 59.1972Z"/>
<path d="M33.8681 66.3663C35.5542 65.3929 37.7103 65.9706 38.6838 67.6567C39.6572 69.3428 39.0795 71.4988 37.3934 72.4723C35.7073 73.4458 33.5513 72.8681 32.5778 71.182C31.6043 69.4959 32.182 67.3398 33.8681 66.3663Z"/>
<path d="M37.5927 72.7238C38.9205 71.2999 41.1512 71.222 42.5751 72.5499C43.9991 73.8777 44.077 76.1084 42.7491 77.5323C41.4213 78.9563 39.1906 79.0341 37.7667 77.7063C36.3427 76.3785 36.2648 74.1478 37.5927 72.7238Z"/>
<path d="M43.0147 77.7145C43.8681 75.9646 45.9786 75.2379 47.7286 76.0914C49.4785 76.9449 50.2052 79.0554 49.3517 80.8053C48.4982 82.5552 46.3877 83.2819 44.6378 82.4284C42.8879 81.575 42.1612 79.4645 43.0147 77.7145Z"/>
<path d="M49.6581 80.903C49.9627 78.98 51.7685 77.668 53.6915 77.9726C55.6145 78.2772 56.9265 80.0829 56.6219 82.0059C56.3173 83.9289 54.5115 85.2409 52.5885 84.9364C50.6655 84.6318 49.3535 82.826 49.6581 80.903Z"/>
<path d="M56.9442 82.0078C56.6732 80.0798 58.0165 78.2972 59.9445 78.0262C61.8726 77.7553 63.6552 79.0986 63.9262 81.0266C64.1971 82.9546 62.8538 84.7372 60.9258 85.0082C58.9978 85.2792 57.2152 83.9359 56.9442 82.0078Z"/>
<path d="M64.2352 80.9355C63.4124 79.171 64.1758 77.0735 65.9404 76.2506C67.7049 75.4278 69.8024 76.1912 70.6252 77.9558C71.4481 79.7203 70.6846 81.8178 68.9201 82.6406C67.1555 83.4635 65.0581 82.7001 64.2352 80.9355Z"/>
<path d="M70.8942 77.7782C69.5914 76.3313 69.7083 74.1023 71.1551 72.7995C72.602 71.4967 74.831 71.6136 76.1338 73.0604C77.4366 74.5073 77.3198 76.7364 75.8729 78.0391C74.426 79.3419 72.197 79.2251 70.8942 77.7782Z"/>
<path d="M76.3381 72.8119C74.6692 71.8091 74.1292 69.6433 75.1319 67.9744C76.1347 66.3056 78.3005 65.7656 79.9694 66.7683C81.6382 67.7711 82.1782 69.9369 81.1755 71.6058C80.1727 73.2746 78.0069 73.8146 76.3381 72.8119Z"/>
<path d="M80.0926 66.4714C78.2035 66.0004 77.0539 64.0871 77.5249 62.198C77.9959 60.3089 79.9092 59.1592 81.7983 59.6303C83.6874 60.1013 84.837 62.0145 84.366 63.9037C83.895 65.7928 81.9817 66.9424 80.0926 66.4714Z"/>
<path d="M80.2499 48.0928C78.3529 48.5308 77.17 50.4237 77.608 52.3207C78.046 54.2178 79.9389 55.4006 81.836 54.9627C83.733 54.5247 84.9159 52.6318 84.4779 50.7347C84.0399 48.8376 82.147 47.6548 80.2499 48.0928Z"/>
<path d="M76.6073 41.6886C74.9211 42.6621 74.3434 44.8181 75.3169 46.5042C76.2904 48.1904 78.4464 48.7681 80.1325 47.7946C81.8187 46.8211 82.3964 44.6651 81.4229 42.979C80.4494 41.2928 78.2934 40.7151 76.6073 41.6886Z"/>
<path d="M71.2503 36.6281C69.9225 38.052 70.0004 40.2828 71.4243 41.6106C72.8483 42.9384 75.079 42.8605 76.4068 41.4366C77.7346 40.0127 77.6567 37.7819 76.2328 36.4541C74.8089 35.1263 72.5782 35.2042 71.2503 36.6281Z"/>
<path d="M64.648 33.3551C63.7945 35.105 64.5212 37.2155 66.2711 38.069C68.021 38.9225 70.1315 38.1958 70.985 36.4459C71.8385 34.6959 71.1118 32.5855 69.3619 31.732C67.612 30.8785 65.5015 31.6052 64.648 33.3551Z"/>
<path d="M57.377 32.1557C57.0724 34.0787 58.3844 35.8845 60.3074 36.1891C62.2304 36.4937 64.0362 35.1817 64.3408 33.2587C64.6454 31.3357 63.3334 29.5299 61.4104 29.2253C59.4874 28.9207 57.6816 30.2327 57.377 32.1557Z"/>
<path d="M50.073 33.1339C50.3439 35.0619 52.1266 36.4052 54.0546 36.1343C55.9826 35.8633 57.3259 34.0807 57.0549 32.1527C56.784 30.2246 55.0013 28.8813 53.0733 29.1523C51.1453 29.4233 49.802 31.2059 50.073 33.1339Z"/>
<path d="M43.3755 36.2043C44.1983 37.9689 46.2958 38.7323 48.0603 37.9095C49.8249 37.0867 50.5883 34.9892 49.7655 33.2246C48.9427 31.4601 46.8452 30.6967 45.0806 31.5195C43.3161 32.3423 42.5527 34.4398 43.3755 36.2043Z"/>
<path d="M37.8685 41.1003C39.1712 42.5472 41.4003 42.664 42.8471 41.3613C44.294 40.0585 44.4108 37.8295 43.1081 36.3826C41.8053 34.9357 39.5763 34.8189 38.1294 36.1217C36.6825 37.4244 36.5657 39.6535 37.8685 41.1003Z"/>
<path d="M34.0333 47.392C35.7021 48.3948 37.8679 47.8548 38.8707 46.1859C39.8735 44.517 39.3335 42.3512 37.6646 41.3485C35.9957 40.3457 33.8299 40.8857 32.8272 42.5546C31.8244 44.2235 32.3644 46.3892 34.0333 47.392Z"/>
<path d="M32.2029 54.5311C34.0921 55.0021 36.0053 53.8525 36.4764 51.9634C36.9474 50.0743 35.7978 48.161 33.9086 47.69C32.0195 47.219 30.1062 48.3686 29.6352 50.2577C29.1642 52.1468 30.3138 54.0601 32.2029 54.5311Z"/>
<path d="M40.4236 58.4918C41.6897 58.1995 42.9531 58.989 43.2454 60.2551C43.5377 61.5212 42.7483 62.7845 41.4821 63.0768C40.216 63.3691 38.9527 62.5797 38.6604 61.3136C38.3681 60.0475 39.1575 58.7841 40.4236 58.4918Z"/>
<path d="M41.56 63.2764C42.6853 62.6267 44.1243 63.0123 44.774 64.1376C45.4237 65.2629 45.0381 66.7019 43.9128 67.3516C42.7875 68.0013 41.3485 67.6157 40.6988 66.4904C40.0491 65.3651 40.4347 63.9261 41.56 63.2764Z"/>
<path d="M44.0471 67.5196C44.9333 66.5693 46.4221 66.5173 47.3724 67.4035C48.3227 68.2897 48.3747 69.7785 47.4885 70.7288C46.6023 71.6791 45.1135 71.7311 44.1632 70.8449C43.2129 69.9587 43.1609 68.4699 44.0471 67.5196Z"/>
<path d="M47.6644 70.8521C48.234 69.6842 49.6425 69.1992 50.8104 69.7688C51.9783 70.3384 52.4633 71.747 51.8937 72.9149C51.3241 74.0828 49.9155 74.5678 48.7476 73.9982C47.5797 73.4285 47.0947 72.02 47.6644 70.8521Z"/>
<path d="M52.0999 72.9785C52.3032 71.6951 53.5084 70.8195 54.7918 71.0228C56.0752 71.226 56.9508 72.4312 56.7476 73.7147C56.5443 74.9981 55.3391 75.8737 54.0557 75.6704C52.7723 75.4671 51.8966 74.2619 52.0999 72.9785Z"/>
<path d="M56.9622 73.716C56.7814 72.4293 57.6779 71.2395 58.9647 71.0587C60.2514 70.8778 61.4412 71.7744 61.622 73.0611C61.8029 74.3479 60.9063 75.5376 59.6196 75.7185C58.3328 75.8993 57.1431 75.0028 56.9622 73.716Z"/>
<path d="M61.8271 73.0012C61.278 71.8235 61.7875 70.4237 62.9652 69.8745C64.1428 69.3253 65.5427 69.8348 66.0918 71.0125C66.641 72.1902 66.1315 73.59 64.9538 74.1392C63.7761 74.6883 62.3763 74.1788 61.8271 73.0012Z"/>
<path d="M66.2703 70.8935C65.4009 69.9279 65.4788 68.4402 66.4445 67.5707C67.4101 66.7012 68.8978 66.7792 69.7673 67.7449C70.6367 68.7105 70.5588 70.1982 69.5931 71.0676C68.6275 71.9371 67.1398 71.8592 66.2703 70.8935Z"/>
<path d="M69.9048 67.5791C68.791 66.9098 68.4306 65.4644 69.0998 64.3506C69.7691 63.2368 71.2145 62.8764 72.3283 63.5456C73.4421 64.2149 73.8025 65.6603 73.1333 66.7741C72.464 67.8879 71.0186 68.2483 69.9048 67.5791Z"/>
<path d="M72.4114 63.3473C71.1506 63.0329 70.3833 61.756 70.6977 60.4952C71.012 59.2344 72.289 58.4671 73.5498 58.7815C74.8106 59.0958 75.5778 60.3727 75.2635 61.6335C74.9491 62.8944 73.6722 63.6616 72.4114 63.3473Z"/>
<path d="M72.5177 51.0823C71.2516 51.3746 70.4622 52.6379 70.7545 53.904C71.0468 55.1701 72.3101 55.9596 73.5762 55.6672C74.8424 55.3749 75.6318 54.1116 75.3395 52.8455C75.0472 51.5794 73.7838 50.79 72.5177 51.0823Z"/>
<path d="M70.0865 46.808C68.9612 47.4577 68.5756 48.8966 69.2253 50.0219C69.875 51.1472 71.314 51.5328 72.4393 50.8831C73.5646 50.2334 73.9502 48.7945 73.3005 47.6691C72.6508 46.5438 71.2118 46.1583 70.0865 46.808Z"/>
<path d="M66.5108 43.4307C65.6246 44.3811 65.6766 45.8699 66.6269 46.7561C67.5773 47.6422 69.0661 47.5903 69.9523 46.6399C70.8384 45.6896 70.7865 44.2008 69.8361 43.3146C68.8858 42.4284 67.397 42.4804 66.5108 43.4307Z"/>
<path d="M62.1045 41.2459C61.5349 42.4138 62.0199 43.8224 63.1878 44.392C64.3557 44.9616 65.7642 44.4766 66.3339 43.3087C66.9035 42.1408 66.4185 40.7323 65.2506 40.1626C64.0827 39.593 62.6741 40.078 62.1045 41.2459Z"/>
<path d="M57.2521 40.4448C57.0489 41.7282 57.9245 42.9334 59.2079 43.1366C60.4913 43.3399 61.6965 42.4643 61.8998 41.1809C62.1031 39.8975 61.2274 38.6923 59.944 38.489C58.6606 38.2857 57.4554 39.1613 57.2521 40.4448Z"/>
<path d="M52.3778 41.098C52.5587 42.3848 53.7484 43.2813 55.0351 43.1005C56.3219 42.9196 57.2184 41.7299 57.0376 40.4431C56.8567 39.1564 55.667 38.2598 54.3803 38.4407C53.0935 38.6215 52.197 39.8113 52.3778 41.098Z"/>
<path d="M47.9066 43.1481C48.4558 44.3257 49.8556 44.8352 51.0333 44.2861C52.211 43.7369 52.7205 42.3371 52.1713 41.1594C51.6222 39.9817 50.2223 39.4722 49.0446 40.0214C47.867 40.5705 47.3575 41.9704 47.9066 43.1481Z"/>
<path d="M44.2331 46.4152C45.1025 47.3808 46.5902 47.4588 47.5559 46.5893C48.5215 45.7198 48.5995 44.2322 47.73 43.2665C46.8605 42.3009 45.3729 42.2229 44.4072 43.0924C43.4416 43.9619 43.3636 45.4495 44.2331 46.4152Z"/>
<path d="M41.6714 50.6149C42.7852 51.2841 44.2307 50.9238 44.8999 49.8099C45.5692 48.6961 45.2088 47.2507 44.095 46.5814C42.9811 45.9122 41.5357 46.2726 40.8665 47.3864C40.1972 48.5002 40.5576 49.9457 41.6714 50.6149Z"/>
<path d="M40.4513 55.3787C41.7121 55.693 42.989 54.9258 43.3033 53.665C43.6177 52.4042 42.8504 51.1272 41.5896 50.8129C40.3288 50.4985 39.0519 51.2658 38.7376 52.5266C38.4232 53.7874 39.1904 55.0643 40.4513 55.3787Z"/>
</mask>
<path d="M6.45352 61.3872C10.3141 60.4959 14.1663 62.903 15.0576 66.7636C15.9489 70.6242 13.5418 74.4764 9.68119 75.3677C5.82056 76.259 1.96836 73.8519 1.07707 69.9913C0.185769 66.1307 2.59289 62.2785 6.45352 61.3872Z" stroke="black" stroke-width="2" mask="url(#path-1-inside-1_1561_17226)"/>
<path d="M9.919 75.9766C13.3504 73.9955 17.738 75.1712 19.7191 78.6025C21.7002 82.0339 20.5245 86.4215 17.0932 88.4026C13.6618 90.3837 9.27417 89.208 7.29308 85.7767C5.31199 82.3453 6.48765 77.9577 9.919 75.9766Z" stroke="black" stroke-width="2" mask="url(#path-1-inside-1_1561_17226)"/>
<path d="M17.5005 88.9165C20.2027 86.0188 24.7424 85.8602 27.6401 88.5624C30.5379 91.2646 30.6964 95.8043 27.9942 98.7021C25.292 101.6 20.7524 101.758 17.8546 99.0562C14.9568 96.354 14.7983 91.8143 17.5005 88.9165Z" stroke="black" stroke-width="2" mask="url(#path-1-inside-1_1561_17226)"/>
<path d="M28.5345 99.0725C30.2714 95.5113 34.5663 94.0324 38.1275 95.7693C41.6887 97.5062 43.1675 101.801 41.4306 105.362C39.6937 108.924 35.3988 110.402 31.8376 108.666C28.2764 106.929 26.7975 102.634 28.5345 99.0725Z" stroke="black" stroke-width="2" mask="url(#path-1-inside-1_1561_17226)"/>
<path d="M42.0567 105.56C42.6765 101.646 46.3514 98.9762 50.2648 99.5961C54.1782 100.216 56.8482 103.891 56.2284 107.804C55.6085 111.718 51.9336 114.388 48.0202 113.768C44.1068 113.148 41.4369 109.473 42.0567 105.56Z" stroke="black" stroke-width="2" mask="url(#path-1-inside-1_1561_17226)"/>
<path d="M56.8813 107.81C56.3299 103.887 59.0636 100.259 62.9872 99.7073C66.9108 99.1559 70.5386 101.89 71.09 105.813C71.6414 109.737 68.9077 113.365 64.9841 113.916C61.0605 114.467 57.4328 111.734 56.8813 107.81Z" stroke="black" stroke-width="2" mask="url(#path-1-inside-1_1561_17226)"/>
<path d="M71.7179 105.626C70.0434 102.035 71.597 97.7668 75.188 96.0923C78.779 94.4178 83.0474 95.9714 84.7219 99.5624C86.3964 103.153 84.8428 107.422 81.2519 109.096C77.6609 110.771 73.3924 109.217 71.7179 105.626Z" stroke="black" stroke-width="2" mask="url(#path-1-inside-1_1561_17226)"/>
<path d="M85.2704 99.2006C82.6191 96.2561 82.8569 91.7199 85.8013 89.0687C88.7458 86.4175 93.282 86.6552 95.9332 89.5997C98.5844 92.5442 98.3467 97.0804 95.4022 99.7316C92.4578 102.383 87.9216 102.145 85.2704 99.2006Z" stroke="black" stroke-width="2" mask="url(#path-1-inside-1_1561_17226)"/>
<path d="M96.3495 89.0941C92.9533 87.0534 91.8544 82.6459 93.895 79.2496C95.9357 75.8534 100.343 74.7545 103.739 76.7951C107.136 78.8358 108.235 83.2433 106.194 86.6396C104.153 90.0358 99.7458 91.1347 96.3495 89.0941Z" stroke="black" stroke-width="2" mask="url(#path-1-inside-1_1561_17226)"/>
<path d="M103.988 76.1907C100.144 75.2322 97.8043 71.3386 98.7628 67.4941C99.7213 63.6496 103.615 61.3101 107.459 62.2686C111.304 63.2271 113.643 67.1208 112.685 70.9653C111.726 74.8097 107.833 77.1493 103.988 76.1907Z" stroke="black" stroke-width="2" mask="url(#path-1-inside-1_1561_17226)"/>
<path d="M104.319 38.7926C100.458 39.6839 98.0513 43.5361 98.9426 47.3968C99.8339 51.2574 103.686 53.6645 107.547 52.7732C111.407 51.8819 113.814 48.0297 112.923 44.1691C112.032 40.3084 108.18 37.9013 104.319 38.7926Z" stroke="black" stroke-width="2" mask="url(#path-1-inside-1_1561_17226)"/>
<path d="M96.9043 25.7572C93.4729 27.7383 92.2972 32.1259 94.2783 35.5573C96.2594 38.9886 100.647 40.1643 104.078 38.1832C107.51 36.2021 108.685 31.8145 106.704 28.3831C104.723 24.9518 100.336 23.7761 96.9043 25.7572Z" stroke="black" stroke-width="2" mask="url(#path-1-inside-1_1561_17226)"/>
<path d="M86.0038 15.4599C83.3016 18.3577 83.4601 22.8973 86.3579 25.5995C89.2556 28.3017 93.7953 28.1432 96.4975 25.2454C99.1997 22.3477 99.0412 17.808 96.1434 15.1058C93.2457 12.4036 88.706 12.5621 86.0038 15.4599Z" stroke="black" stroke-width="2" mask="url(#path-1-inside-1_1561_17226)"/>
<path d="M72.5682 8.79897C70.8313 12.3602 72.3101 16.6551 75.8713 18.392C79.4325 20.1289 83.7274 18.6501 85.4643 15.0889C87.2013 11.5277 85.7224 7.23273 82.1612 5.49583C78.6 3.75892 74.3051 5.23779 72.5682 8.79897Z" stroke="black" stroke-width="2" mask="url(#path-1-inside-1_1561_17226)"/>
<path d="M57.7727 6.35817C57.1529 10.2716 59.8228 13.9465 63.7362 14.5663C67.6496 15.1861 71.3245 12.5161 71.9444 8.60274C72.5642 4.68934 69.8942 1.01444 65.9808 0.394619C62.0674 -0.225203 58.3925 2.44477 57.7727 6.35817Z" stroke="black" stroke-width="2" mask="url(#path-1-inside-1_1561_17226)"/>
<path d="M42.9071 8.34929C43.4586 12.2729 47.0863 15.0066 51.0099 14.4552C54.9336 13.9038 57.6673 10.276 57.1158 6.35239C56.5644 2.42877 52.9367 -0.304936 49.013 0.246493C45.0894 0.797922 42.3557 4.42567 42.9071 8.34929Z" stroke="black" stroke-width="2" mask="url(#path-1-inside-1_1561_17226)"/>
<path d="M29.2758 14.5983C30.9503 18.1892 35.2188 19.7428 38.8098 18.0683C42.4007 16.3939 43.9543 12.1254 42.2798 8.53442C40.6053 4.94346 36.3369 3.38986 32.7459 5.06435C29.1549 6.73884 27.6013 11.0073 29.2758 14.5983Z" stroke="black" stroke-width="2" mask="url(#path-1-inside-1_1561_17226)"/>
<path d="M18.0674 24.5606C20.7186 27.505 25.2549 27.7428 28.1993 25.0916C31.1438 22.4403 31.3815 17.9041 28.7303 14.9597C26.0791 12.0152 21.5429 11.7775 18.5984 14.4287C15.6539 17.0799 15.4162 21.6161 18.0674 24.5606Z" stroke="black" stroke-width="2" mask="url(#path-1-inside-1_1561_17226)"/>
<path d="M10.2619 37.3641C13.6581 39.4048 18.0656 38.3059 20.1063 34.9096C22.147 31.5133 21.0481 27.1059 17.6518 25.0652C14.2556 23.0245 9.84808 24.1234 7.80741 27.5197C5.76673 30.9159 6.86565 35.3234 10.2619 37.3641Z" stroke="black" stroke-width="2" mask="url(#path-1-inside-1_1561_17226)"/>
<path d="M6.53911 51.8924C10.3836 52.851 14.2772 50.5114 15.2358 46.667C16.1943 42.8225 13.8548 38.9288 10.0103 37.9703C6.1658 37.0118 2.27217 39.3513 1.31364 43.1958C0.355099 47.0403 2.69462 50.9339 6.53911 51.8924Z" stroke="black" stroke-width="2" mask="url(#path-1-inside-1_1561_17226)"/>
<path d="M21.8367 60.0763C24.5224 59.4562 27.2023 61.1308 27.8224 63.8166C28.4425 66.5023 26.7679 69.1822 24.0821 69.8023C21.3963 70.4224 18.7164 68.7478 18.0964 66.062C17.4763 63.3762 19.1509 60.6963 21.8367 60.0763Z" stroke="black" stroke-width="2" mask="url(#path-1-inside-1_1561_17226)"/>
<path d="M24.2468 70.2253C26.6339 68.8471 29.6863 69.665 31.0646 72.0521C32.4428 74.4392 31.6249 77.4917 29.2377 78.8699C26.8506 80.2481 23.7982 79.4302 22.42 77.0431C21.0418 74.6559 21.8597 71.6035 24.2468 70.2253Z" stroke="black" stroke-width="2" mask="url(#path-1-inside-1_1561_17226)"/>
<path d="M29.5225 79.2282C31.4023 77.2122 34.5605 77.102 36.5764 78.9818C38.5923 80.8617 38.7026 84.0199 36.8228 86.0358C34.9429 88.0517 31.7847 88.162 29.7688 86.2821C27.7529 84.4022 27.6426 81.2441 29.5225 79.2282Z" stroke="black" stroke-width="2" mask="url(#path-1-inside-1_1561_17226)"/>
<path d="M37.197 86.293C38.4053 83.8156 41.3933 82.7868 43.8707 83.9951C46.3482 85.2034 47.377 88.1914 46.1687 90.6688C44.9603 93.1463 41.9724 94.1751 39.4949 92.9668C37.0175 91.7584 35.9887 88.7705 37.197 86.293Z" stroke="black" stroke-width="2" mask="url(#path-1-inside-1_1561_17226)"/>
<path d="M46.6034 90.8067C47.0346 88.0842 49.5912 86.2268 52.3137 86.658C55.0361 87.0891 56.8936 89.6457 56.4624 92.3682C56.0312 95.0907 53.4746 96.9481 50.7521 96.5169C48.0297 96.0857 46.1722 93.5292 46.6034 90.8067Z" stroke="black" stroke-width="2" mask="url(#path-1-inside-1_1561_17226)"/>
<path d="M56.9198 92.3717C56.5361 89.6421 58.4379 87.1183 61.1675 86.7347C63.8971 86.3511 66.4209 88.2529 66.8045 90.9825C67.1881 93.7121 65.2863 96.2358 62.5567 96.6194C59.8271 97.0031 57.3034 95.1013 56.9198 92.3717Z" stroke="black" stroke-width="2" mask="url(#path-1-inside-1_1561_17226)"/>
<path d="M67.2413 90.8534C66.0764 88.3552 67.1572 85.3857 69.6554 84.2208C72.1536 83.0559 75.1231 84.1367 76.288 86.6349C77.4529 89.133 76.3721 92.1026 73.8739 93.2675C71.3758 94.4324 68.4062 93.3516 67.2413 90.8534Z" stroke="black" stroke-width="2" mask="url(#path-1-inside-1_1561_17226)"/>
<path d="M76.6673 86.3828C74.8229 84.3344 74.9882 81.1787 77.0367 79.3343C79.0851 77.4899 82.2408 77.6553 84.0852 79.7037C85.9296 81.7521 85.7643 84.9078 83.7158 86.7522C81.6674 88.5966 78.5117 88.4313 76.6673 86.3828Z" stroke="black" stroke-width="2" mask="url(#path-1-inside-1_1561_17226)"/>
<path d="M84.376 79.3519C82.0132 77.9323 81.2487 74.8661 82.6684 72.5033C84.0881 70.1406 87.1543 69.3761 89.517 70.7958C91.8797 72.2155 92.6442 75.2817 91.2245 77.6444C89.8049 80.0071 86.7387 80.7716 84.376 79.3519Z" stroke="black" stroke-width="2" mask="url(#path-1-inside-1_1561_17226)"/>
<path d="M89.692 70.3754C87.0174 69.7086 85.3899 66.9998 86.0567 64.3253C86.7236 61.6508 89.4323 60.0232 92.1068 60.69C94.7814 61.3569 96.4089 64.0656 95.7421 66.7401C95.0753 69.4147 92.3665 71.0422 89.692 70.3754Z" stroke="black" stroke-width="2" mask="url(#path-1-inside-1_1561_17226)"/>
<path d="M89.9199 44.3588C87.2341 44.9789 85.5595 47.6588 86.1796 50.3445C86.7997 53.0303 89.4796 54.7049 92.1653 54.0849C94.8511 53.4648 96.5257 50.7849 95.9056 48.0991C95.2856 45.4133 92.6057 43.7387 89.9199 44.3588Z" stroke="black" stroke-width="2" mask="url(#path-1-inside-1_1561_17226)"/>
<path d="M84.7608 35.2908C82.3736 36.669 81.5557 39.7214 82.934 42.1085C84.3122 44.4956 87.3646 45.3135 89.7517 43.9353C92.1388 42.5571 92.9567 39.5047 91.5785 37.1176C90.2003 34.7304 87.1479 33.9125 84.7608 35.2908Z" stroke="black" stroke-width="2" mask="url(#path-1-inside-1_1561_17226)"/>
<path d="M77.1776 28.1262C75.2978 30.1421 75.408 33.3003 77.424 35.1801C79.4399 37.06 82.598 36.9497 84.4779 34.9338C86.3578 32.9179 86.2475 29.7597 84.2316 27.8799C82.2157 26 79.0575 26.1103 77.1776 28.1262Z" stroke="black" stroke-width="2" mask="url(#path-1-inside-1_1561_17226)"/>
<path d="M67.8296 23.4923C66.6213 25.9698 67.6501 28.9577 70.1276 30.166C72.605 31.3743 75.5929 30.3455 76.8013 27.8681C78.0096 25.3906 76.9808 22.4027 74.5033 21.1944C72.0259 19.986 69.038 21.0149 67.8296 23.4923Z" stroke="black" stroke-width="2" mask="url(#path-1-inside-1_1561_17226)"/>
<path d="M57.536 21.794C57.1048 24.5164 58.9622 27.073 61.6847 27.5042C64.4072 27.9354 66.9638 26.078 67.395 23.3555C67.8262 20.633 65.9687 18.0764 63.2462 17.6452C60.5237 17.214 57.9672 19.0715 57.536 21.794Z" stroke="black" stroke-width="2" mask="url(#path-1-inside-1_1561_17226)"/>
<path d="M47.1951 23.1797C47.5787 25.9093 50.1025 27.8111 52.8321 27.4275C55.5617 27.0439 57.4635 24.5201 57.0798 21.7905C56.6962 19.0609 54.1725 17.1591 51.4429 17.5428C48.7133 17.9264 46.8115 20.4501 47.1951 23.1797Z" stroke="black" stroke-width="2" mask="url(#path-1-inside-1_1561_17226)"/>
<path d="M37.7126 27.5262C38.8775 30.0244 41.847 31.1052 44.3452 29.9403C46.8434 28.7754 47.9242 25.8059 46.7593 23.3077C45.5944 20.8095 42.6248 19.7287 40.1267 20.8936C37.6285 22.0586 36.5477 25.0281 37.7126 27.5262Z" stroke="black" stroke-width="2" mask="url(#path-1-inside-1_1561_17226)"/>
<path d="M29.914 34.4578C31.7584 36.5062 34.9142 36.6716 36.9626 34.8272C39.011 32.9828 39.1764 29.827 37.332 27.7786C35.4876 25.7302 32.3319 25.5648 30.2834 27.4092C28.235 29.2536 28.0696 32.4093 29.914 34.4578Z" stroke="black" stroke-width="2" mask="url(#path-1-inside-1_1561_17226)"/>
<path d="M24.4836 43.3653C26.8463 44.7849 29.9125 44.0204 31.3322 41.6577C32.7519 39.295 31.9874 36.2288 29.6247 34.8091C27.2619 33.3895 24.1957 34.154 22.7761 36.5167C21.3564 38.8794 22.1209 41.9456 24.4836 43.3653Z" stroke="black" stroke-width="2" mask="url(#path-1-inside-1_1561_17226)"/>
<path d="M21.8952 53.4723C24.5697 54.1391 27.2784 52.5116 27.9453 49.837C28.6121 47.1625 26.9845 44.4538 24.31 43.7869C21.6355 43.1201 18.9267 44.7476 18.2599 47.4222C17.5931 50.0967 19.2206 52.8055 21.8952 53.4723Z" stroke="black" stroke-width="2" mask="url(#path-1-inside-1_1561_17226)"/>
<path d="M32.1634 59.1972C34.0605 58.7592 35.9534 59.9421 36.3914 61.8391C36.8293 63.7362 35.6465 65.6291 33.7495 66.0671C31.8524 66.5051 29.9595 65.3222 29.5215 63.4252C29.0835 61.5281 30.2664 59.6352 32.1634 59.1972Z" stroke="black" stroke-width="2" mask="url(#path-1-inside-1_1561_17226)"/>
<path d="M33.8681 66.3663C35.5542 65.3929 37.7103 65.9706 38.6838 67.6567C39.6572 69.3428 39.0795 71.4988 37.3934 72.4723C35.7073 73.4458 33.5513 72.8681 32.5778 71.182C31.6043 69.4959 32.182 67.3398 33.8681 66.3663Z" stroke="black" stroke-width="2" mask="url(#path-1-inside-1_1561_17226)"/>
<path d="M37.5927 72.7238C38.9205 71.2999 41.1512 71.222 42.5751 72.5499C43.9991 73.8777 44.077 76.1084 42.7491 77.5323C41.4213 78.9563 39.1906 79.0341 37.7667 77.7063C36.3427 76.3785 36.2648 74.1478 37.5927 72.7238Z" stroke="black" stroke-width="2" mask="url(#path-1-inside-1_1561_17226)"/>
<path d="M43.0147 77.7145C43.8681 75.9646 45.9786 75.2379 47.7286 76.0914C49.4785 76.9449 50.2052 79.0554 49.3517 80.8053C48.4982 82.5552 46.3877 83.2819 44.6378 82.4284C42.8879 81.575 42.1612 79.4645 43.0147 77.7145Z" stroke="black" stroke-width="2" mask="url(#path-1-inside-1_1561_17226)"/>
<path d="M49.6581 80.903C49.9627 78.98 51.7685 77.668 53.6915 77.9726C55.6145 78.2772 56.9265 80.0829 56.6219 82.0059C56.3173 83.9289 54.5115 85.2409 52.5885 84.9364C50.6655 84.6318 49.3535 82.826 49.6581 80.903Z" stroke="black" stroke-width="2" mask="url(#path-1-inside-1_1561_17226)"/>
<path d="M56.9442 82.0078C56.6732 80.0798 58.0165 78.2972 59.9445 78.0262C61.8726 77.7553 63.6552 79.0986 63.9262 81.0266C64.1971 82.9546 62.8538 84.7372 60.9258 85.0082C58.9978 85.2792 57.2152 83.9359 56.9442 82.0078Z" stroke="black" stroke-width="2" mask="url(#path-1-inside-1_1561_17226)"/>
<path d="M64.2352 80.9355C63.4124 79.171 64.1758 77.0735 65.9404 76.2506C67.7049 75.4278 69.8024 76.1912 70.6252 77.9558C71.4481 79.7203 70.6846 81.8178 68.9201 82.6406C67.1555 83.4635 65.0581 82.7001 64.2352 80.9355Z" stroke="black" stroke-width="2" mask="url(#path-1-inside-1_1561_17226)"/>
<path d="M70.8942 77.7782C69.5914 76.3313 69.7083 74.1023 71.1551 72.7995C72.602 71.4967 74.831 71.6136 76.1338 73.0604C77.4366 74.5073 77.3198 76.7364 75.8729 78.0391C74.426 79.3419 72.197 79.2251 70.8942 77.7782Z" stroke="black" stroke-width="2" mask="url(#path-1-inside-1_1561_17226)"/>
<path d="M76.3381 72.8119C74.6692 71.8091 74.1292 69.6433 75.1319 67.9744C76.1347 66.3056 78.3005 65.7656 79.9694 66.7683C81.6382 67.7711 82.1782 69.9369 81.1755 71.6058C80.1727 73.2746 78.0069 73.8146 76.3381 72.8119Z" stroke="black" stroke-width="2" mask="url(#path-1-inside-1_1561_17226)"/>
<path d="M80.0926 66.4714C78.2035 66.0004 77.0539 64.0871 77.5249 62.198C77.9959 60.3089 79.9092 59.1592 81.7983 59.6303C83.6874 60.1013 84.837 62.0145 84.366 63.9037C83.895 65.7928 81.9817 66.9424 80.0926 66.4714Z" stroke="black" stroke-width="2" mask="url(#path-1-inside-1_1561_17226)"/>
<path d="M80.2499 48.0928C78.3529 48.5308 77.17 50.4237 77.608 52.3207C78.046 54.2178 79.9389 55.4006 81.836 54.9627C83.733 54.5247 84.9159 52.6318 84.4779 50.7347C84.0399 48.8376 82.147 47.6548 80.2499 48.0928Z" stroke="black" stroke-width="2" mask="url(#path-1-inside-1_1561_17226)"/>
<path d="M76.6073 41.6886C74.9211 42.6621 74.3434 44.8181 75.3169 46.5042C76.2904 48.1904 78.4464 48.7681 80.1325 47.7946C81.8187 46.8211 82.3964 44.6651 81.4229 42.979C80.4494 41.2928 78.2934 40.7151 76.6073 41.6886Z" stroke="black" stroke-width="2" mask="url(#path-1-inside-1_1561_17226)"/>
<path d="M71.2503 36.6281C69.9225 38.052 70.0004 40.2828 71.4243 41.6106C72.8483 42.9384 75.079 42.8605 76.4068 41.4366C77.7346 40.0127 77.6567 37.7819 76.2328 36.4541C74.8089 35.1263 72.5782 35.2042 71.2503 36.6281Z" stroke="black" stroke-width="2" mask="url(#path-1-inside-1_1561_17226)"/>
<path d="M64.648 33.3551C63.7945 35.105 64.5212 37.2155 66.2711 38.069C68.021 38.9225 70.1315 38.1958 70.985 36.4459C71.8385 34.6959 71.1118 32.5855 69.3619 31.732C67.612 30.8785 65.5015 31.6052 64.648 33.3551Z" stroke="black" stroke-width="2" mask="url(#path-1-inside-1_1561_17226)"/>
<path d="M57.377 32.1557C57.0724 34.0787 58.3844 35.8845 60.3074 36.1891C62.2304 36.4937 64.0362 35.1817 64.3408 33.2587C64.6454 31.3357 63.3334 29.5299 61.4104 29.2253C59.4874 28.9207 57.6816 30.2327 57.377 32.1557Z" stroke="black" stroke-width="2" mask="url(#path-1-inside-1_1561_17226)"/>
<path d="M50.073 33.1339C50.3439 35.0619 52.1266 36.4052 54.0546 36.1343C55.9826 35.8633 57.3259 34.0807 57.0549 32.1527C56.784 30.2246 55.0013 28.8813 53.0733 29.1523C51.1453 29.4233 49.802 31.2059 50.073 33.1339Z" stroke="black" stroke-width="2" mask="url(#path-1-inside-1_1561_17226)"/>
<path d="M43.3755 36.2043C44.1983 37.9689 46.2958 38.7323 48.0603 37.9095C49.8249 37.0867 50.5883 34.9892 49.7655 33.2246C48.9427 31.4601 46.8452 30.6967 45.0806 31.5195C43.3161 32.3423 42.5527 34.4398 43.3755 36.2043Z" stroke="black" stroke-width="2" mask="url(#path-1-inside-1_1561_17226)"/>
<path d="M37.8685 41.1003C39.1712 42.5472 41.4003 42.664 42.8471 41.3613C44.294 40.0585 44.4108 37.8295 43.1081 36.3826C41.8053 34.9357 39.5763 34.8189 38.1294 36.1217C36.6825 37.4244 36.5657 39.6535 37.8685 41.1003Z" stroke="black" stroke-width="2" mask="url(#path-1-inside-1_1561_17226)"/>
<path d="M34.0333 47.392C35.7021 48.3948 37.8679 47.8548 38.8707 46.1859C39.8735 44.517 39.3335 42.3512 37.6646 41.3485C35.9957 40.3457 33.8299 40.8857 32.8272 42.5546C31.8244 44.2235 32.3644 46.3892 34.0333 47.392Z" stroke="black" stroke-width="2" mask="url(#path-1-inside-1_1561_17226)"/>
<path d="M32.2029 54.5311C34.0921 55.0021 36.0053 53.8525 36.4764 51.9634C36.9474 50.0743 35.7978 48.161 33.9086 47.69C32.0195 47.219 30.1062 48.3686 29.6352 50.2577C29.1642 52.1468 30.3138 54.0601 32.2029 54.5311Z" stroke="black" stroke-width="2" mask="url(#path-1-inside-1_1561_17226)"/>
<path d="M40.4236 58.4918C41.6897 58.1995 42.9531 58.989 43.2454 60.2551C43.5377 61.5212 42.7483 62.7845 41.4821 63.0768C40.216 63.3691 38.9527 62.5797 38.6604 61.3136C38.3681 60.0475 39.1575 58.7841 40.4236 58.4918Z" stroke="black" stroke-width="2" mask="url(#path-1-inside-1_1561_17226)"/>
<path d="M41.56 63.2764C42.6853 62.6267 44.1243 63.0123 44.774 64.1376C45.4237 65.2629 45.0381 66.7019 43.9128 67.3516C42.7875 68.0013 41.3485 67.6157 40.6988 66.4904C40.0491 65.3651 40.4347 63.9261 41.56 63.2764Z" stroke="black" stroke-width="2" mask="url(#path-1-inside-1_1561_17226)"/>
<path d="M44.0471 67.5196C44.9333 66.5693 46.4221 66.5173 47.3724 67.4035C48.3227 68.2897 48.3747 69.7785 47.4885 70.7288C46.6023 71.6791 45.1135 71.7311 44.1632 70.8449C43.2129 69.9587 43.1609 68.4699 44.0471 67.5196Z" stroke="black" stroke-width="2" mask="url(#path-1-inside-1_1561_17226)"/>
<path d="M47.6644 70.8521C48.234 69.6842 49.6425 69.1992 50.8104 69.7688C51.9783 70.3384 52.4633 71.747 51.8937 72.9149C51.3241 74.0828 49.9155 74.5678 48.7476 73.9982C47.5797 73.4285 47.0947 72.02 47.6644 70.8521Z" stroke="black" stroke-width="2" mask="url(#path-1-inside-1_1561_17226)"/>
<path d="M52.0999 72.9785C52.3032 71.6951 53.5084 70.8195 54.7918 71.0228C56.0752 71.226 56.9508 72.4312 56.7476 73.7147C56.5443 74.9981 55.3391 75.8737 54.0557 75.6704C52.7723 75.4671 51.8966 74.2619 52.0999 72.9785Z" stroke="black" stroke-width="2" mask="url(#path-1-inside-1_1561_17226)"/>
<path d="M56.9622 73.716C56.7814 72.4293 57.6779 71.2395 58.9647 71.0587C60.2514 70.8778 61.4412 71.7744 61.622 73.0611C61.8029 74.3479 60.9063 75.5376 59.6196 75.7185C58.3328 75.8993 57.1431 75.0028 56.9622 73.716Z" stroke="black" stroke-width="2" mask="url(#path-1-inside-1_1561_17226)"/>
<path d="M61.8271 73.0012C61.278 71.8235 61.7875 70.4237 62.9652 69.8745C64.1428 69.3253 65.5427 69.8348 66.0918 71.0125C66.641 72.1902 66.1315 73.59 64.9538 74.1392C63.7761 74.6883 62.3763 74.1788 61.8271 73.0012Z" stroke="black" stroke-width="2" mask="url(#path-1-inside-1_1561_17226)"/>
<path d="M66.2703 70.8935C65.4009 69.9279 65.4788 68.4402 66.4445 67.5707C67.4101 66.7012 68.8978 66.7792 69.7673 67.7449C70.6367 68.7105 70.5588 70.1982 69.5931 71.0676C68.6275 71.9371 67.1398 71.8592 66.2703 70.8935Z" stroke="black" stroke-width="2" mask="url(#path-1-inside-1_1561_17226)"/>
<path d="M69.9048 67.5791C68.791 66.9098 68.4306 65.4644 69.0998 64.3506C69.7691 63.2368 71.2145 62.8764 72.3283 63.5456C73.4421 64.2149 73.8025 65.6603 73.1333 66.7741C72.464 67.8879 71.0186 68.2483 69.9048 67.5791Z" stroke="black" stroke-width="2" mask="url(#path-1-inside-1_1561_17226)"/>
<path d="M72.4114 63.3473C71.1506 63.0329 70.3833 61.756 70.6977 60.4952C71.012 59.2344 72.289 58.4671 73.5498 58.7815C74.8106 59.0958 75.5778 60.3727 75.2635 61.6335C74.9491 62.8944 73.6722 63.6616 72.4114 63.3473Z" stroke="black" stroke-width="2" mask="url(#path-1-inside-1_1561_17226)"/>
<path d="M72.5177 51.0823C71.2516 51.3746 70.4622 52.6379 70.7545 53.904C71.0468 55.1701 72.3101 55.9596 73.5762 55.6672C74.8424 55.3749 75.6318 54.1116 75.3395 52.8455C75.0472 51.5794 73.7838 50.79 72.5177 51.0823Z" stroke="black" stroke-width="2" mask="url(#path-1-inside-1_1561_17226)"/>
<path d="M70.0865 46.808C68.9612 47.4577 68.5756 48.8966 69.2253 50.0219C69.875 51.1472 71.314 51.5328 72.4393 50.8831C73.5646 50.2334 73.9502 48.7945 73.3005 47.6691C72.6508 46.5438 71.2118 46.1583 70.0865 46.808Z" stroke="black" stroke-width="2" mask="url(#path-1-inside-1_1561_17226)"/>
<path d="M66.5108 43.4307C65.6246 44.3811 65.6766 45.8699 66.6269 46.7561C67.5773 47.6422 69.0661 47.5903 69.9523 46.6399C70.8384 45.6896 70.7865 44.2008 69.8361 43.3146C68.8858 42.4284 67.397 42.4804 66.5108 43.4307Z" stroke="black" stroke-width="2" mask="url(#path-1-inside-1_1561_17226)"/>
<path d="M62.1045 41.2459C61.5349 42.4138 62.0199 43.8224 63.1878 44.392C64.3557 44.9616 65.7642 44.4766 66.3339 43.3087C66.9035 42.1408 66.4185 40.7323 65.2506 40.1626C64.0827 39.593 62.6741 40.078 62.1045 41.2459Z" stroke="black" stroke-width="2" mask="url(#path-1-inside-1_1561_17226)"/>
<path d="M57.2521 40.4448C57.0489 41.7282 57.9245 42.9334 59.2079 43.1366C60.4913 43.3399 61.6965 42.4643 61.8998 41.1809C62.1031 39.8975 61.2274 38.6923 59.944 38.489C58.6606 38.2857 57.4554 39.1613 57.2521 40.4448Z" stroke="black" stroke-width="2" mask="url(#path-1-inside-1_1561_17226)"/>
<path d="M52.3778 41.098C52.5587 42.3848 53.7484 43.2813 55.0351 43.1005C56.3219 42.9196 57.2184 41.7299 57.0376 40.4431C56.8567 39.1564 55.667 38.2598 54.3803 38.4407C53.0935 38.6215 52.197 39.8113 52.3778 41.098Z" stroke="black" stroke-width="2" mask="url(#path-1-inside-1_1561_17226)"/>
<path d="M47.9066 43.1481C48.4558 44.3257 49.8556 44.8352 51.0333 44.2861C52.211 43.7369 52.7205 42.3371 52.1713 41.1594C51.6222 39.9817 50.2223 39.4722 49.0446 40.0214C47.867 40.5705 47.3575 41.9704 47.9066 43.1481Z" stroke="black" stroke-width="2" mask="url(#path-1-inside-1_1561_17226)"/>
<path d="M44.2331 46.4152C45.1025 47.3808 46.5902 47.4588 47.5559 46.5893C48.5215 45.7198 48.5995 44.2322 47.73 43.2665C46.8605 42.3009 45.3729 42.2229 44.4072 43.0924C43.4416 43.9619 43.3636 45.4495 44.2331 46.4152Z" stroke="black" stroke-width="2" mask="url(#path-1-inside-1_1561_17226)"/>
<path d="M41.6714 50.6149C42.7852 51.2841 44.2307 50.9238 44.8999 49.8099C45.5692 48.6961 45.2088 47.2507 44.095 46.5814C42.9811 45.9122 41.5357 46.2726 40.8665 47.3864C40.1972 48.5002 40.5576 49.9457 41.6714 50.6149Z" stroke="black" stroke-width="2" mask="url(#path-1-inside-1_1561_17226)"/>
<path d="M40.4513 55.3787C41.7121 55.693 42.989 54.9258 43.3033 53.665C43.6177 52.4042 42.8504 51.1272 41.5896 50.8129C40.3288 50.4985 39.0519 51.2658 38.7376 52.5266C38.4232 53.7874 39.1904 55.0643 40.4513 55.3787Z" stroke="black" stroke-width="2" mask="url(#path-1-inside-1_1561_17226)"/>
</svg>
