<svg width="95" height="80" viewBox="0 0 95 80" fill="none" xmlns="http://www.w3.org/2000/svg">
<path d="M56.65 79.1372V56.1744L75.3844 28.421L94.0167 37.6217V60.6853L56.65 79.1372Z" stroke="#242424" stroke-width="0.3"/>
<path d="M58.7042 78.1228L56.65 79.1372V56.1744L58.7042 53.1313V78.1228ZM82.2458 45.9074V60.6853L68.4208 67.5122V52.7342L82.2458 45.9074Z" stroke="#242424" stroke-width="0.3"/>
<path d="M81.0681 47.6505V60.1035L69.5973 65.7678V53.3149L81.0681 47.6505Z" stroke="#242424" stroke-width="0.3"/>
<path d="M79.8917 59.5224L70.775 64.0242V53.8963L79.8917 49.3944V59.5224Z" stroke="#242424" stroke-width="0.3"/>
<path opacity="0.15" d="M71.0037 53.7834L79.8917 49.3944V57.0751L71.0037 53.7834Z" fill="black" stroke="#242424" stroke-width="0.3"/>
<path d="M70.775 58.212V57.3841L79.8917 52.8822V53.7101L70.775 58.212Z" stroke="#242424" stroke-width="0.3"/>
<path opacity="0.15" d="M79.8917 49.3944V50.2224L70.775 54.7242V53.8963L79.8917 49.3944Z" fill="black" stroke="#242424" stroke-width="0.3"/>
<path d="M73.1285 62.862V51.5715L74.0056 51.1384V62.4289L73.1285 62.862ZM76.6598 61.1182V49.8278L77.5368 49.3947V60.6851L76.6598 61.1182Z" stroke="#242424" stroke-width="0.3"/>
<path d="M80.1074 59.7499L80.191 59.7087V59.6154V48.0837L81.0681 47.6505V60.1035L69.5973 65.7678V64.9399L80.1074 59.7499Z" fill="#242424" stroke="#242424" stroke-width="0.3"/>
<path d="M0.15 51.3853V28.4699L56.35 56.2217V79.1372L0.15 51.3853Z" stroke="#242424" stroke-width="0.3"/>
<path d="M0.15 28.4699L2.20417 29.4842V52.3997L0.15 51.3853V28.4699ZM54.2958 55.2074L56.35 56.2217V79.1372L54.2958 78.1228V55.2074Z" stroke="#242424" stroke-width="0.3"/>
<path opacity="0.3" d="M53.9952 77.1467V77.9747L2.50352 52.5478V51.7199L53.9952 77.1467Z" fill="black" stroke="#242424" stroke-width="0.3"/>
<path d="M17.5063 39.3655V54.1434L7.2125 49.0603V34.2824L17.5063 39.3655Z" stroke="#242424" stroke-width="0.3"/>
<path d="M16.3288 39.9462V52.3991L8.38926 48.4785V36.0255L16.3288 39.9462Z" stroke="#242424" stroke-width="0.3"/>
<path d="M9.56602 37.7697L15.1514 40.5278V50.6557L9.56602 47.8976V37.7697Z" stroke="#242424" stroke-width="0.3"/>
<path opacity="0.15" d="M9.76768 37.8693L15.1514 40.5278V47.9717L9.76768 37.8693Z" fill="black" stroke="#242424" stroke-width="0.3"/>
<path d="M9.56602 42.0849V41.257L15.1514 44.0151V44.843L9.56602 42.0849Z" stroke="#242424" stroke-width="0.3"/>
<path opacity="0.15" d="M15.1514 40.5278V41.3557L9.56602 38.5976V37.7697L15.1514 40.5278Z" fill="black" stroke="#242424" stroke-width="0.3"/>
<path d="M11.9205 49.0599V37.7694L12.7976 38.2025V49.493L11.9205 49.0599Z" stroke="#242424" stroke-width="0.3"/>
<path d="M9.26634 47.9904V48.0837L9.34993 48.1249L16.3288 51.5712V52.3991L8.38926 48.4785V36.0255L9.26634 36.4587V47.9904Z" fill="#242424" stroke="#242424" stroke-width="0.3"/>
<path d="M49.2875 55.0591V69.837L38.9938 64.7539V49.976L49.2875 55.0591Z" stroke="#242424" stroke-width="0.3"/>
<path d="M48.1101 55.6405V68.0934L40.1705 64.1728V51.7199L48.1101 55.6405Z" stroke="#242424" stroke-width="0.3"/>
<path d="M41.3473 53.463L46.9327 56.2212V66.3491L41.3473 63.591V53.463Z" stroke="#242424" stroke-width="0.3"/>
<path opacity="0.15" d="M41.5489 53.5626L46.9327 56.2212V63.665L41.5489 53.5626Z" fill="black" stroke="#242424" stroke-width="0.3"/>
<path d="M41.3473 57.7783V56.9503L46.9327 59.7085V60.5364L41.3473 57.7783Z" stroke="#242424" stroke-width="0.3"/>
<path opacity="0.15" d="M46.9327 56.2212V57.0491L41.3473 54.291V53.463L46.9327 56.2212Z" fill="black" stroke="#242424" stroke-width="0.3"/>
<path d="M43.7018 64.7535V53.463L44.5788 53.8962V65.1866L43.7018 64.7535Z" stroke="#242424" stroke-width="0.3"/>
<path d="M41.0476 63.6848V63.778L41.1312 63.8193L48.1101 67.2655V68.0934L40.1705 64.1728V51.7199L41.0476 52.153V63.6848Z" fill="#242424" stroke="#242424" stroke-width="0.3"/>
<path d="M33.9851 66.9303L22.5143 61.266V41.838L33.9851 47.5024V66.9303Z" stroke="#242424" stroke-width="0.3"/>
<path d="M32.8077 48.084V66.3495L23.691 61.8476V43.5822L32.8077 48.084Z" stroke="#242424" stroke-width="0.3"/>
<path d="M24.5681 61.3596V61.4528L24.6517 61.4941L32.8077 65.5215V66.3495L23.691 61.8476V43.5822L24.5681 44.0153V61.3596Z" fill="#242424" stroke="#242424" stroke-width="0.3"/>
<path d="M28.0997 49.246V50.0739L26.0455 49.0595V48.2316L28.0997 49.246ZM31.6309 50.9897V51.8176L29.5768 50.8033V49.9753L31.6309 50.9897ZM28.0997 53.896V54.7239L26.0455 53.7095V52.8816L28.0997 53.896ZM31.6309 55.6397V56.4676L29.5768 55.4533V54.6253L31.6309 55.6397ZM28.0997 58.546V59.3739L26.0455 58.3595V57.5316L28.0997 58.546ZM31.6309 60.2897V61.1176L29.5768 60.1033V59.2753L31.6309 60.2897Z" fill="#242424" stroke="#242424" stroke-width="0.3"/>
<path opacity="0.06" d="M0.15 50.7603V27.8449L56.35 55.5967V78.5122L0.15 50.7603Z" fill="black" stroke="#242424" stroke-width="0.3"/>
<path d="M75.1129 28.2868L56.449 55.9359L0.220427 28.1699L18.8844 0.520863L75.1129 28.2868Z" stroke="#242424" stroke-width="0.3"/>
<path d="M75.1129 28.2868L56.449 55.9359L0.220427 28.1699L18.8844 0.520863L75.1129 28.2868Z" fill="#F6F6F6" stroke="#242424" stroke-width="0.3"/>
<path opacity="0.2" d="M75.1112 28.2857L73.9897 29.8967L17.7617 2.13104L18.8832 0.520028L75.1112 28.2857Z" stroke="#242424" stroke-width="0.3"/>
<path d="M18.8327 59.7825L37.516 69.0085V69.9845L28.2493 74.5604L9.56602 65.3345V64.3585L18.8327 59.7825Z" stroke="#242424" stroke-width="0.3"/>
<path d="M19.1718 64.2654L23.5413 62.1077L32.6192 66.5904L28.2497 68.7481L19.1718 64.2654Z" stroke="#242424" stroke-width="0.3"/>
<path opacity="0.39" d="M28.4 73.6592L37.5167 69.1574V69.9853L28.4 74.4872V73.6592Z" fill="black" stroke="#242424" stroke-width="0.3"/>
<path opacity="0.06" d="M28.0993 74.4868L9.56602 65.3349V64.507L28.0993 73.6588V74.4868Z" fill="black" stroke="#242424" stroke-width="0.3"/>
<path d="M16.3288 41.6903V64.6058L15.4518 64.1726V41.2572L16.3288 41.6903Z" stroke="#242424" stroke-width="0.3"/>
<path opacity="0.06" d="M16.3288 41.6903V64.6058L15.4518 64.1726V41.2572L16.3288 41.6903Z" fill="black" stroke="#242424" stroke-width="0.3"/>
<path d="M16.6285 64.6055V41.6901L17.5056 41.257V64.1724L16.6285 64.6055Z" stroke="#242424" stroke-width="0.3"/>
<path d="M16.6285 64.6055V41.6901L17.5056 41.257V64.1724L16.6285 64.6055Z" fill="#242424" stroke="#242424" stroke-width="0.3"/>
<path d="M26.9226 45.7585V69.8364L26.0455 69.4033V45.3253L26.9226 45.7585Z" stroke="#242424" stroke-width="0.3"/>
<path opacity="0.06" d="M26.9226 45.7585V69.8364L26.0455 69.4033V45.3253L26.9226 45.7585Z" fill="black" stroke="#242424" stroke-width="0.3"/>
<path d="M27.2223 69.8364V45.7585L28.0993 45.3253V69.4033L27.2223 69.8364Z" stroke="#242424" stroke-width="0.3"/>
<path d="M27.2223 69.8364V45.7585L28.0993 45.3253V69.4033L27.2223 69.8364Z" fill="#242424" stroke="#242424" stroke-width="0.3"/>
<path d="M18.7879 33.1018L29.054 51.1266L8.52171 40.9876L18.7879 33.1018Z" stroke="#242424" stroke-width="0.3"/>
<path d="M22.4803 45.9071L14.0454 41.796L18.3176 38.2258L22.4803 45.9071Z" stroke="#242424" stroke-width="0.3"/>
<path d="M18.963 33.9656L18.8779 33.8177L18.7421 33.9211L9.05092 41.3013L8.51047 40.9962L18.7879 33.1018L29.0278 51.0805L28.7123 50.9025L18.963 33.9656Z" stroke="#242424" stroke-width="0.3"/>
<path d="M38.2285 46.3885L29.4835 51.275L19.0421 32.9426L39.853 22.666L38.2285 46.3885Z" stroke="#242424" stroke-width="0.3"/>
<path d="M38.2285 46.3885L29.4835 51.275L19.0421 32.9426L39.853 22.666L38.2285 46.3885Z" fill="#242424" stroke="#242424" stroke-width="0.3"/>
<path opacity="0.2" d="M19.0353 32.9459L39.7628 22.7106L39.4275 23.7041L19.3706 33.6083L19.0353 32.9459Z" stroke="#242424" stroke-width="0.3"/>
<path opacity="0.3" d="M14.8505 41.7159L14.6794 41.8638L14.8822 41.9639L22.3707 45.6618L22.4997 45.9166L14.0454 41.796L18.3245 38.2201L18.5212 38.5439L14.8505 41.7159Z" fill="black" stroke="#242424" stroke-width="0.3"/>
<path d="M18.7879 33.1018L29.054 51.1266L8.52171 40.9876L18.7879 33.1018Z" fill="#F6F6F6" stroke="#242424" stroke-width="0.3"/>
<path d="M94.0167 60.6845L91.9625 61.6989V36.6066L94.0167 37.621V60.6845Z" stroke="#242424" stroke-width="0.3"/>
<path opacity="0.3" d="M91.6618 61.0197V61.8476L59.0035 77.9745V77.1465L91.6618 61.0197Z" fill="black" stroke="#242424" stroke-width="0.3"/>
<path d="M75.3961 29.2548L75.2791 29.2009L75.2082 29.3084L57.5964 55.9785H56.7822L75.3844 28.421L93.5241 37.3785H93.0225L75.3961 29.2548Z" stroke="#242424" stroke-width="0.3"/>
<path opacity="0.39" d="M56.65 79.1372V56.1744L75.3844 28.421L94.0167 37.6217V60.6853L56.65 79.1372Z" stroke="#242424" stroke-width="0.3"/>
</svg>
