<svg width="83" height="83" viewBox="0 0 83 83" fill="none" xmlns="http://www.w3.org/2000/svg">
<path fill-rule="evenodd" clip-rule="evenodd" d="M46.5 35.5726L54.0877 38.3468L58.125 45.3712L56.7229 53.359L50.5373 58.5726H42.4627L36.2771 53.359L34.875 45.3712L38.9123 38.3468L46.5 35.5726ZM39.9216 39.5551L46.5 37.15L53.0784 39.5551L56.5786 45.6451L55.363 52.5703L50.0003 57.0905H42.9997L37.637 52.5703L36.4214 45.6451L39.9216 39.5551Z" fill="#242424"/>
<path fill-rule="evenodd" clip-rule="evenodd" d="M57.8815 33.8051L46.5 29.6439L35.1185 33.8051L29.0625 44.3416L31.1657 56.3234L40.444 64.1439H52.556L61.8343 56.3234L63.9375 44.3416L57.8815 33.8051ZM46.5 31.2212L36.1278 35.0134L30.6089 44.6155L32.5256 55.5347L40.9811 62.6617H52.0189L60.4744 55.5347L62.3911 44.6155L56.8722 35.0134L46.5 31.2212Z" fill="#242424"/>
<path fill-rule="evenodd" clip-rule="evenodd" d="M46.5 23.7151L61.6754 29.2634L69.75 43.3121L66.9457 59.2877L54.5746 69.7151H38.4254L26.0543 59.2877L23.25 43.3121L31.3246 29.2634L46.5 23.7151ZM32.334 30.4717L46.5 25.2924L60.666 30.4717L68.2036 43.586L65.5858 58.4991L54.0376 68.2329H38.9624L27.4142 58.4991L24.7964 43.586L32.334 30.4717Z" fill="#242424"/>
<path fill-rule="evenodd" clip-rule="evenodd" d="M65.4692 24.7217L46.5 17.7863L27.5308 24.7217L17.4375 42.2826L20.9429 62.2521L36.4067 75.2863H56.5933L72.0571 62.2521L75.5625 42.2826L65.4692 24.7217ZM46.5 19.3636L28.5401 25.93L18.9839 42.5565L22.3027 61.4635L36.9438 73.8041H56.0562L70.6973 61.4635L74.0161 42.5565L64.4599 25.93L46.5 19.3636Z" fill="#242424"/>
<path fill-rule="evenodd" clip-rule="evenodd" d="M46.5 11.8575L69.263 20.18L81.375 41.2531L77.1686 65.2165L58.612 80.8576H34.388L15.8314 65.2165L11.625 41.2531L23.737 20.18L46.5 11.8575ZM24.7463 21.3883L46.5 13.4349L68.2537 21.3883L79.8286 41.527L75.8087 64.4279L58.0749 79.3754H34.9251L17.1913 64.4279L13.1714 41.527L24.7463 21.3883Z" fill="#242424"/>
<path fill-rule="evenodd" clip-rule="evenodd" d="M73.0569 15.6383L46.5 5.92877L19.9431 15.6383L5.8125 40.2235L10.72 68.1809L32.3694 86.4288H60.6306L82.28 68.1809L87.1875 40.2235L73.0569 15.6383ZM46.5 7.50609L20.9524 16.8466L7.35888 40.4974L12.0799 67.3922L32.9064 84.9466H60.0936L80.9201 67.3922L85.6411 40.4974L72.0476 16.8466L46.5 7.50609Z" fill="#242424"/>
<path fill-rule="evenodd" clip-rule="evenodd" d="M76.8507 11.0966L46.5 0L16.1493 11.0966L0 39.194L5.60859 71.1453L30.3507 92H62.6493L87.3914 71.1453L93 39.194L76.8507 11.0966ZM46.5 1.57732L17.1586 12.3049L1.54638 39.4679L6.96845 70.3566L30.8878 90.5178H62.1122L86.0315 70.3566L91.4536 39.4679L75.8414 12.3049L46.5 1.57732Z" fill="#242424"/>
<path d="M53 48C53 51.3137 50.0899 54 46.5 54C42.9101 54 40 51.3137 40 48C40 44.6863 42.9101 42 46.5 42C50.0899 42 53 44.6863 53 48Z" fill="#242424"/>
</svg>
